/* XPM */
static char *_a917d5d689143ab92f98856a9f0fad4lK24SYpB9oMl541k[] = {
/* columns rows colors chars-per-pixel */
"60 60 161 2 ",
"   c #151515",
".  c #241F1F",
"X  c #23201F",
"o  c #262221",
"O  c #282323",
"+  c #272B25",
"@  c #2D2828",
"#  c #312D2D",
"$  c #253326",
"%  c #223C27",
"&  c #2B332B",
"*  c #3B342A",
"=  c #363131",
"-  c #383333",
";  c #3D3939",
":  c #403D37",
">  c #433F3F",
",  c #184724",
"<  c #1F4D29",
"1  c #0E5622",
"2  c #1D542A",
"3  c #1B5C2C",
"4  c #214629",
"5  c #204929",
"6  c #3F4337",
"7  c #215A31",
"8  c #0B6625",
"9  c #096C25",
"0  c #116127",
"q  c #13662A",
"w  c #1A642D",
"e  c #156B2D",
"r  c #186D2F",
"t  c #0A7127",
"y  c #0C7529",
"u  c #0B7B2B",
"i  c #177430",
"p  c #147C31",
"a  c #257F3C",
"s  c #57482C",
"d  c #4A483F",
"f  c #624F2E",
"g  c #685739",
"h  c #735C36",
"j  c #337F41",
"k  c #4C4A4A",
"l  c #514D4D",
"z  c #575649",
"x  c #555252",
"c  c #5D5959",
"v  c #615E5B",
"b  c #7D6B49",
"n  c #6A6758",
"m  c #577660",
"M  c #666462",
"N  c #696763",
"B  c #6C6A6A",
"V  c #747373",
"C  c #7B7878",
"Z  c #8F7343",
"A  c #86714E",
"S  c #807D7D",
"D  c #0B832E",
"F  c #0C8A2F",
"G  c #0F8330",
"H  c #0D8D31",
"J  c #178234",
"K  c #118B33",
"L  c #1F843A",
"P  c #0D9233",
"I  c #0D9D36",
"U  c #109235",
"Y  c #23813B",
"T  c #28843D",
"R  c #0DA037",
"E  c #2B8043",
"W  c #37844A",
"Q  c #3D8451",
"!  c #4A834F",
"~  c #478058",
"^  c #568C66",
"/  c #559467",
"(  c #658B6F",
")  c #699965",
"_  c #76996C",
"`  c #778C72",
"'  c #7A9E70",
"]  c #8F8469",
"[  c #868470",
"{  c #A48D66",
"}  c #AB9672",
"|  c #B09D7D",
" . c #88A279",
".. c #8FA87E",
"X. c #799881",
"o. c #7BA085",
"O. c #858684",
"+. c #8C8B8B",
"@. c #8C918B",
"#. c #849E8C",
"$. c #959489",
"%. c #9C9B8C",
"&. c #959393",
"*. c #9C9C94",
"=. c #A19F86",
"-. c #8CA794",
";. c #8BA994",
":. c #A2A287",
">. c #A6A48D",
",. c #A3AF8C",
"<. c #ADAB8F",
"1. c #A5B28D",
"2. c #ACA992",
"3. c #A5A49B",
"4. c #ABAA9B",
"5. c #AEB493",
"6. c #B3B295",
"7. c #B3B997",
"8. c #BCBB9C",
"9. c #9EA5A0",
"0. c #A3A2A2",
"q. c #ABABA2",
"w. c #ABABAA",
"e. c #BDB3A3",
"r. c #ADB7B0",
"t. c #B4B4B4",
"y. c #B9B7B7",
"u. c #BCBCBC",
"i. c #C1BFA0",
"p. c #C8BBA3",
"a. c #BFC0BF",
"s. c #C9C1A7",
"d. c #CFCCAB",
"f. c #D0CEAE",
"g. c #D1C5B2",
"h. c #DCD9B6",
"j. c #DEDBB8",
"k. c #E1DEBA",
"l. c #E4E1BD",
"z. c #BFC6C1",
"x. c #C2C3C2",
"c. c #CCCCCC",
"v. c #CDD0CE",
"b. c #DDD6CA",
"n. c #D3D3D3",
"m. c #DBDCDB",
"M. c #E2DACE",
"N. c #E5DED4",
"B. c #E9E6C1",
"V. c #E9E6C2",
"C. c #F2EFC8",
"Z. c #F5F3CB",
"A. c #F9F6CF",
"S. c #FBF8D0",
"D. c #E5E5E5",
"F. c #ECECEC",
"G. c #F4F2ED",
"H. c #F4F4F4",
"J. c #F8F6F3",
"K. c #F9F8F5",
"L. c #FEFEFE",
/* pixels */
"R R R R R R R R R R R R R R R R R R R R R R R R R R R R R R R R R R R R R R R R R R R R R R R R R R R R R R R R R R R R ",
"R R R R R R R R R R R R R R R R R R R R R R R R R R R R R R R R R R R R R R R R R R R R R R R R R R R R R R R R R R R R ",
"R R R R R R R R R R R R R R R R R R R R R R R R R R R R R R R R R R R R R R R R R R R R R R R R R R R R R R R R R R R R ",
"R R R R R R R R R R R R R R R R D R R R R R R R R R R R R R R R R R R R R R R R R R R R R R R R R R R R R R R R R R R R ",
"R R R R R R R R R R R R R R R H , u I R R R R R R R R R R R R R R R R R R R R R R R R R R R R R R R R R R R R R R R R R ",
"R R R R R R R R R R R R R R R 9 , $ 0 D P 9 t P I R R R R R R R R R R R R R R R R R R R R R R R R R R R R R R R R R R R ",
"R R R R R R R R R R R R R R R R q O O 3 2 w r 1 8 P R R R R R R R R R R R R R R R R R R R R R R R R R R R R R R R R R R ",
"R R R R R R R R R R R R R R R F 2 O O O o o O O $ e t R R R R R R R R R R R R R R R R R R R R R R R R R R R R R R R R R ",
"R R R R R R R R R R R R I R D % O O O O O O O O O O 4 u D R R R R R R R R R R R R R R R R R R R R R R R R R R R R R R R ",
"R R R R R R R R R D P I I 8 % # x O O O O O O O O O O $ D I R R R R R R R R R R R R R R R R R R R R R R R R R R R R R R ",
"R R R R R R R R R 9 2 , 2 < # C v @ O O O O O O O O O O 5 t R R R R R R R R R R R R R R R R R R R R R R R R R R R R R R ",
"R R R R R R R R R H e O O O O M B O O O O O O O k @ O O O e D R R R R R R R R R R R R R R R R R R R R R R R R R R R R R ",
"R R R R R R R R R I y r O O O O O @ O O O O O C K.x O O O < 9 R R R R R R R R R R R R R R R R R R R R R R R R R R R R R ",
"R R R R R R R R R R I D 2 O O O O x.y.S : O &.L.F.= O O O $ u R R I R R R R R I R R R R R R R R R R R R R R R R R R R R ",
"R R R R R R R R R R R F 2 O O O O O.L.H.x O = N ; O O O O O I P E ' ,.1...) a I R R R R R R R R R R R R R R R R R R R R ",
"R R R R R R R R R R R F 5 O O O O O > = O O O O O O O O O + T 7.S.k.>.2.4.<.i.,.Y R R R R R R R R R R R R R R R R R R R ",
"R R R R R R R R R R R R 2 O O O O O O O O O = > - O O O O d V.Z.%.y.L.L.L.L.m.*.i.W I R R R R R R R R R R R R R R R R R ",
"R R R R R R R R R R R t w O O O O O o v 0.c.D.F.0.O O O # V.A.%.J.L.L.L.L.L.L.L.w.8.J R R R R R R R R R R R R R R R R R ",
"R R R R R R R R R R R P 8 O O O O O o a.L.L.F.c.+.O O O :.S.2.F.G.b.p.M.L.L.L.K.J.%. .R R R R R R R R R R R R R R R R R ",
"R R R R R R R R R R I I 1 2 O O O O O l C k @ @ o O O O C.S.] { Z Z . f L.L.N.s h A 6.H R R R R R R R R R R R R R R R R ",
"R R R R R R R R R R R R D y $ O O O O O O O O O O O O d S.S.b Z Z Z g e.c.&.b.* f Z 6.u R R R R R R R R R R R R R R R R ",
"R R R R R R R R R R R R I D H $ O O O O O O O O O O O z S.S.A } p.N.L.L.r.  D.G.g.| 6.u R R R R R R R R R R R R R R R R ",
"R R R R R R R R R R R R R R H H 2 O O O O O O O O O O 6 S.S.3.L.L.L.L.F.L.u.H.L.L.n.<.K R R R R R R R R R R R R R R R R ",
"R R R R R R R R R R R R R R I D 8 i 2 O O O O O O O O . f.A.6.D.L.L.L.w.u.w.0.L.L.*...I R R R R R R R R R R R R R R R R ",
"R R R R R R R R R R R R R R R R R P i O O O O O O O O O z S.A.$.H.L.L.D.L.L.m.L.z.6.J R R R R R R R R R R R R R R R R R ",
"R R R R R R R R R R R R R R R R R R 3 O O O O O O O O O O [ A.Z.:.a.L.L.L.L.K.0.6.! I R R R R R R R R R R R R R R R R R ",
"R R R R R R R R R R R R R R R R R R 2 O O O O O O O O O O . n V.S.j.>.q.q.4.2.8.j I R R R R R R R R R R R R R R R R R R ",
"R R R R R R R R R R R R R R R R R R < O O O O O O O O O O O O @ >.S.S.S.S.S.S.i R I R R R R R R R R R R R R R R R R R R ",
"R R R R R R R R R R R R R R R R R R 3 O O O O O O O O O O O : t.n.k.A.S.S.S.S.9.Q I I R R R R R R R R R R R R R R R R R ",
"R R R R R R R R R R R R R R R R R R 3 O O O O O O O O O X B H.L.v.b.S.S.S.S.S.N.L.#.H R R R R R R R R R R R R R R R R R ",
"R R R R R R R R R R R R R R R R R R r O O O O O O O O o +.L.L.c.e.S.S.S.S.S.S.` v.L.z.L R R R R R R R R R R R R R R R R ",
"R R R R R R R R R R R R R R R R R R p O O O O O O O O &.L.H.C =.S.S.S.S.S.S.S.) H X.K.m.j R R R R R R R R R R R R R R R ",
"R R R R R R R R R R R R R R R R R R U O O O O O O O V L.L.k o f.S.S.S.S.S.S.S. .R I j L.m.K I I R R R R R R R R R R R R ",
"R R R R R R R R R R R R R R R R R R R + O O O O O O w.L.L.x   S.S.S.S.S.S.S.S.5.R R ^ L.v.H R I R R R R R R R R R R R R ",
"R R R R R R R R R R R R R R R R R R R 5 O O O O O O = c.L.F.N A.S.S.S.S.S.S.S.d.P E D.F.E R R R R R R R R R R R R R R R ",
"R R R R R R R R R R R R R R R R R R R w O O O O O O O O w.L.H.*.Z.S.S.S.S.S.S.C.8 x.H.W R R R R R R R R R R R R R R R R ",
"R R R R R R R R R R R R R R R R R R R K O O O O O O O O O V K.L.3.A.S.S.S.S.S.S.@.K.~ R R R R R R R R R R R R R R R R R ",
"R R R R R R R R R R R R R R R R R R R I $ O O O O O O O O O n F.K.8.S.S.S.S.S.S.&.#.I R R R R R R R R R R R R R R R R R ",
"R R R R R R R R R R R R R R R R R R R R 3 O O O O O O O O O <.4.q.V.S.S.S.S.S.S._ P R R R R R R R R R R R R R R R R R R ",
"R R R R R R R R R R R R R R R R R R R I U + O O O O O O O O 6.S.S.S.S.S.S.S.S.S.#.R R R R R R R R R R R R R R R R R R R ",
"R R R R R R R R R R R R R R R R R R R R R 3 O O O O O O O O 6.A.S.S.S.S.S.S.S.S.5.R R R R R R R R R R R R R R R R R R R ",
"R R R R R R R R R R R R R R R R R R R R R I $ O O O O O O O :.A.S.S.S.S.S.S.S.S.8.R R R R R R R R R R R R R R R R R R R ",
"R R R R R R R R R R R R R R R R R R R R R R J O O O O O O O [ A.S.S.S.S.S.S.S.S.8.R R R R R R R R R R R R R R R R R R R ",
"R R R R R R R R R R R R R R R R R R R R R R R w O O O O O O d A.S.S.S.S.S.S.S.S.7.R R R R R R R R R R R R R R R R R R R ",
"R R R R R R R R R R R R R R R R R R R R R R R R w O O O O O O s.S.S.S.S.S.S.S.S.' R R R R R R R R R R R R R R R R R R R ",
"R R R R R R R R R R R R R R R R R R R R R R R R R p + O O O O ; l.S.S.S.S.S.S.b.Y R R R R R R R R R R R R R R R R R R R ",
"R R R R R R R R R R R R R R R R R R R R R R R R R R K $ O O O O c 7.h.A.A.j...T R R R R R R R R R R R R R R R R R R R R ",
"R R R R R R R R R R R R R R R R R R R R R R R R R R R K + O O O &.L.m.a.g.N.-.R R R R R R R R R R R R R R R R R R R R R ",
"R R R R R R R R R R R R R R R R R R R R R R R R R R R R i o O O w.L.K.&.D.L.r.I R R R R R R R R R R R R R R R R R R R R ",
"R R R R R R R R R R R R R R R R R R R R R R R R R R R R R % O O t.L.t.O 9.L.z.I R R R R R R R R R R R R R R R R R R R R ",
"R R R R R R R R R R R R R R R R R R R R R R R R R R R R R i O O t.L.O.+ C L.n.H R R R R R R R R R R R R R R R R R R R R ",
"R R R R R R R R R R R R R R R R R R R R R R R R R R R R R I O O t.L./ i x L.D.K R R R R R R R R R R R R R R R R R R R R ",
"R R R R R R R R R R R R R R R R R R R R R R R R R R R R R R < O t.L.Q I & L.K.u R R R R R R R R R R R R R R R R R R R R ",
"R R R R R R R R R R R R R R R R R R R R R R R R R R R R R I 3 O t.L.p R 3 D.L.p R R R R R R R R R R R R R R R R R R R R ",
"R R R R R R R R R R R R R R R R R R R R R R R R R R R R R R p O y.F.G R H y.L.a R R R R R R R R R R R R R R R R R R R R ",
"R R R R R R R R R R R R R R R R R R R R R R R R R R R R R R I O u.n.P R I ;.L.W R R R R R R R R R R R R R R R R R R R R ",
"R R R R R R R R R R R R R R R R R R R R R R R R R R R R R R R 7 o.( R R R Q ;.m P R R R R R R R R R R R R R R R R R R R ",
"R R R R R R R R R R R R R R R R R R R R R R R R R R R R R R R R R R R R R R R R R R R R R R R R R R R R R R R R R R R R ",
"R R R R R R R R R R R R R R R R R R R R R R R R R R R R R R R R R R R R R R R R R R R R R R R R R R R R R R R R R R R R ",
"R R R R R R R R R R R R R R R R R R R R R R R R R R R R R R R R R R R R R R R R R R R R R R R R R R R R R R R R R R R R "
};
