/* XPM */
static char *b7fa713e81a14d8ca609d2289fb60ba9D1MUtsYRaFuQxO8l[] = {
/* columns rows colors chars-per-pixel */
"50 50 138 2 ",
"   c #161412",
".  c #2C3533",
"X  c #4A423B",
"o  c #50483F",
"O  c #203C47",
"+  c #1B4149",
"@  c #194B58",
"#  c #2E4040",
"$  c #3C4243",
"%  c #394A4A",
"&  c #2A545C",
"*  c #04546A",
"=  c #01586F",
"-  c #09596E",
";  c #205A6C",
":  c #3B5D60",
">  c #1B6272",
",  c #23616E",
"<  c #30626B",
"1  c #38656C",
"2  c #3C6B72",
"3  c #346D78",
"4  c #4E4C44",
"5  c #4D4F4D",
"6  c #524A40",
"7  c #4D524D",
"8  c #5B5146",
"9  c #54534D",
"0  c #5F554B",
"q  c #475D5C",
"w  c #60564B",
"e  c #675C50",
"r  c #685D50",
"t  c #676056",
"y  c #6B645B",
"u  c #706356",
"i  c #776A5C",
"p  c #796C5D",
"a  c #456263",
"s  c #4A6565",
"d  c #44636F",
"f  c #456A6D",
"g  c #566062",
"h  c #586365",
"j  c #446D72",
"k  c #516B79",
"l  c #6B6963",
"z  c #656C6B",
"x  c #7F7062",
"c  c #7B7368",
"v  c #827363",
"b  c #867869",
"n  c #8A7C6B",
"m  c #958473",
"M  c #988775",
"N  c #9A8977",
"B  c #9D8C7A",
"V  c #A08E7B",
"C  c #A3917D",
"Z  c #006C8A",
"A  c #007494",
"S  c #007899",
"D  c #537183",
"F  c #5C7988",
"G  c #5D7E92",
"H  c #637E8B",
"J  c #0084A9",
"K  c #0089AE",
"L  c #1488A9",
"P  c #0092BA",
"I  c #1295BB",
"U  c #3284A0",
"Y  c #698A9B",
"T  c #6A91A6",
"R  c #6F98AF",
"E  c #719CB3",
"W  c #009BC4",
"Q  c #00A2CF",
"!  c #11A4CF",
"~  c #1EA1C9",
"^  c #00A9D9",
"/  c #37A2C5",
"(  c #3AAACF",
")  c #00B4E5",
"_  c #00B7E9",
"`  c #04B9EA",
"'  c #0AB9EA",
"]  c #19B7E4",
"[  c #12BCEB",
"{  c #1CBEED",
"}  c #22BFEE",
"|  c #31C3EF",
" . c #32C3F0",
".. c #3DC5F1",
"X. c #41C6F2",
"o. c #47C8F3",
"O. c #4AC9F3",
"+. c #5CCDF6",
"@. c #60C7ED",
"#. c #61CEF6",
"$. c #6AD0F7",
"%. c #6DD1F9",
"&. c #7CD5FA",
"*. c #9F9688",
"=. c #A79581",
"-. c #AD9A85",
";. c #AC9C88",
":. c #B29E89",
">. c #B4A08B",
",. c #B9A58E",
"<. c #BCA791",
"1. c #C1AC95",
"2. c #C5AF98",
"3. c #C7B199",
"4. c #C8B39C",
"5. c #CAB7A1",
"6. c #CCBBA5",
"7. c #CFBFAA",
"8. c #D1C1AD",
"9. c #D9CEBD",
"0. c #DAD0BF",
"q. c #8ABDD9",
"w. c #8EC2DF",
"e. c #91C7E5",
"r. c #95CBEA",
"t. c #83D6FB",
"y. c #8BD9FC",
"u. c #9BD4F4",
"i. c #94DBFE",
"p. c #9BDCFD",
"a. c #A2DEFF",
"s. c #A8DFFF",
"d. c #ADE2FF",
"f. c #B3E3FE",
"g. c #BAE6FE",
"h. c #BFE8FE",
"j. c #DBD2C1",
"k. c #C1E9FE",
/* pixels */
"a.a.a.a.a.a.a.a.a.a.a.a.a.a.a.a.a.a.a.a.a.a.a.a.a.a.a.a.a.a.a.a.a.a.a.a.a.a.a.a.a.a.a.a.a.a.a.a.a.a.",
"a.a.a.a.a.a.a.a.a.a.a.a.a.a.a.a.a.a.a.a.a.a.a.a.a.a.a.a.a.a.a.a.a.a.a.a.a.a.a.a.a.a.a.a.a.a.a.a.a.a.",
"a.a.a.a.a.a.a.a.a.a.a.a.a.a.a.a.a.a.a.a.a.a.a.a.a.a.a.a.a.a.a.a.a.a.a.a.a.a.a.a.a.a.a.a.a.a.a.a.a.a.",
"a.a.a.a.a.a.a.a.a.a.a.a.a.a.a.a.a.a.a.a.a.a.a.a.a.a.a.a.a.a.a.a.a.a.a.a.a.a.a.a.a.a.a.a.a.a.a.a.a.a.",
"a.a.a.a.a.a.a.a.a.a.a.a.a.a.a.a.a.a.a.a.a.a.a.a.a.a.a.a.a.a.a.a.a.a.a.a.a.a.a.a.a.a.a.a.a.a.a.a.a.a.",
"a.a.a.a.a.a.a.a.a.a.a.a.a.a.a.a.a.a.a.a.a.a.a.a.a.a.a.a.a.a.a.a.a.a.a.a.a.a.a.a.a.a.a.a.a.a.a.a.a.a.",
"a.a.a.a.a.a.a.a.a.a.a.a.a.a.a.a.a.a.a.a.a.a.a.a.a.a.a.a.a.a.a.a.a.a.a.a.a.a.a.a.a.a.a.a.a.a.a.a.a.a.",
"a.a.a.a.a.a.a.a.a.a.a.a.a.a.a.a.a.a.a.a.a.a.a.a.a.a.a.a.a.a.a.a.a.a.a.a.a.a.a.a.a.a.a.a.a.a.a.a.a.a.",
"a.a.a.a.a.a.a.a.a.a.a.a.a.a.a.a.a.a.a.a.a.a.a.a.a.a.a.a.a.a.a.a.a.a.a.a.a.a.a.a.a.a.a.a.a.a.a.a.a.a.",
"a.a.a.a.a.a.a.a.a.a.a.a.a.a.a.a.a.a.a.a.a.a.a.a.a.a.a.a.a.a.a.a.a.a.a.a.a.a.a.a.a.a.a.a.a.a.a.a.a.a.",
"a.a.a.a.a.a.a.a.a.a.a.a.a.a.a.a.a.a.a.a.a.a.a.a.a.a.a.a.a.a.a.a.a.a.a.a.a.a.a.a.a.a.a.a.a.a.a.a.a.a.",
"a.a.a.a.a.a.a.a.a.a.a.a.a.a.a.a.a.a.a.a.a.a.a.a.a.a.a.a.a.a.a.a.a.a.a.a.a.a.a.a.a.a.a.a.a.a.a.a.a.a.",
"a.a.a.a.a.a.a.a.a.a.a.a.a.a.a.a.a.a.a.a.a.a.a.a.a.a.a.a.a.a.a.a.a.a.a.a.a.a.a.a.a.a.a.a.a.a.a.a.a.a.",
"a.a.a.a.a.a.a.a.d.d.d.u.R g 9 H e.a.a.a.a.a.a.a.a.a.a.a.a.a.a.a.a.a.a.a.a.a.a.a.a.a.a.a.a.a.a.a.a.a.",
"a.a.a.a.a.a.a.f.f.d.G z *.6.7.-.l d U ..O.+.&.p.a.a.a.a.a.a.a.a.a.a.a.a.a.a.a.a.a.a.a.a.a.a.a.a.a.a.",
"a.a.a.a.p.&.#.( ; 4 ;.9.8.4.4.2.2.4.=.% A K _ ` X.p.a.a.a.a.a.a.a.a.a.a.a.a.a.a.a.a.a.a.a.a.a.a.a.a.",
"a.a.a.+.' _ ` # v 4.4.3.2.:.p w ,.3.3.<.6 N # J _ &.d.a.a.a.a.a.a.a.a.a.a.a.a.a.a.a.a.a.a.a.a.a.a.a.",
"a.a.i._ _ _ S B 2.3.3.2.2.,.B C C 3.3.3.o . + =  .d.d.s.a.a.a.a.a.a.a.a.a.a.a.a.a.a.a.a.a.a.a.a.a.a.",
"a.a.t.` K & 4 6 -.4.4.2.3.3.4.2.2.4.3.3.m X P _ o.d.f.f.a.a.a.a.a.a.a.a.a.a.a.a.a.a.a.a.a.a.a.a.a.a.",
"a.a.| A   p x B . : s s s f s q 9 7 a 3 , * ^ `  .d.d.a.a.a.a.a.a.a.a.a.a.a.a.a.a.a.a.a.a.a.a.a.a.a.",
"a.a.y.@./ ~ I L I ' ' [ { [ ' ' ' ' ' ' [ { | +.i.g.a.a.a.a.a.a.a.a.a.a.a.a.a.a.a.a.a.a.a.a.a.a.a.a.",
"a.a.a.a.a.a.a.a.d.a.p.d.a.a.a.a.d.p.a.a.a.a.a.a.f.a.a.a.a.p.a.a.a.a.a.a.a.a.a.a.a.a.a.a.a.a.a.a.a.a.",
"a.a.a.a.a.a.a.a.a.a.a.a.a.a.a.a.p.a.a.a.a.a.a.a.a.a.a.a.a.a.a.a.a.a.a.a.a.a.a.a.a.a.a.a.a.a.a.a.a.a.",
"a.a.a.a.a.a.a.a.a.a.a.a.a.a.a.a.a.a.a.a.a.a.a.a.a.a.a.a.a.a.a.a.a.a.a.a.a.a.a.a.a.a.a.a.a.a.a.a.a.a.",
"a.a.a.a.a.a.a.a.a.a.a.a.a.a.a.a.a.a.a.a.a.a.a.a.a.a.a.a.a.a.a.a.a.a.a.a.a.a.a.a.a.a.a.a.a.a.a.a.a.a.",
"a.a.a.a.a.a.a.a.a.a.a.a.a.a.a.a.a.a.a.a.a.a.a.a.a.a.a.a.a.a.a.a.a.a.a.a.a.a.a.a.a.a.a.a.a.a.a.a.a.a.",
"a.a.a.a.a.a.a.a.a.a.a.a.a.a.a.a.a.a.a.a.a.a.a.a.a.a.a.a.a.a.a.a.a.a.u.w.a.a.a.a.a.a.a.a.a.a.a.a.a.a.",
"a.a.a.a.a.a.a.a.a.a.a.a.a.a.a.a.a.a.a.a.a.a.a.a.a.T G r.a.a.u.q.q.F t u Y a.a.a.a.a.a.a.a.a.a.a.a.a.",
"a.a.a.a.a.a.a.a.a.a.a.a.a.a.a.a.a.a.a.a.a.a.a.a.E b -.l D k y n b ,.3.2.c q.a.a.a.a.a.a.a.a.a.a.a.a.",
"a.a.a.a.a.a.a.a.a.a.a.a.a.a.a.a.a.a.a.a.a.a.a.a.h 2.4.r e >.4.9.j.0.8.4.4.5 w.a.a.a.a.a.a.a.a.a.a.a.",
"a.a.a.a.a.a.a.a.a.a.a.a.a.a.a.a.a.a.a.a.a.a.a.a.0 2.3.3.3.3.3.4.5.4.3.3.2.:.$ u.a.a.a.a.a.a.a.a.a.a.",
"a.a.a.a.a.a.a.a.a.a.a.a.a.a.a.a.a.a.a.a.a.$.} ! n 3.3.3.3.3.3.3.3.3.3.3.3.3.M O ] [ { | t.a.a.a.a.a.",
"a.a.a.a.a.a.a.a.a.a.a.a.a.a.a.a.a.a.a.a.X._ _ W m 3.3.3.3.3.3.w i N i n 3.3.1.u @ _ _ _ _ #.f.f.a.a.",
"a.a.a.a.a.a.a.a.a.a.a.a.a.a.a.a.a.a.a.&._ _ _ Q v 2.3.3.3.3.3.1.-.v V M 3.3.2.2.M J _ _ _ ' a.k.a.a.",
"a.a.a.a.a.a.a.a.a.a.a.a.a.a.a.a.a.a.a.%._ _ _ ) 8 3.3.3.3.3.3.2.4.4.3.3.3.3.3.2.B A ` _ _ { a.k.f.a.",
"a.a.a.a.a.a.a.a.a.a.a.a.a.a.a.a.a.a.a.$._ _ _ _ A * < f s j 2 2 1 f 2 2 3 > - - Z _ _ _ _ &.d.f.h.a.",
"a.a.a.a.a.a.a.a.a.a.a.a.a.a.a.a.a.a.d.y.` _ _ _ _ _ _ _ _ _ _ _ _ _ _ _ _ _ _ _ _ ` ` [ &.a.a.d.g.a.",
"a.a.a.a.a.a.a.a.a.a.a.a.a.a.a.a.a.a.d.f.+.} ' ` _ _ _ _ _ _ _ ` ' [ [ [ ' ` ' [ } X.%.a.s.d.f.h.a.a.",
"a.a.a.a.a.a.a.a.a.a.a.a.a.a.a.a.a.a.a.f.h.f.p.t.t.t.&.t.t.y.y.i.i.p.a.a.i.i.i.a.a.a.a.a.d.f.d.a.a.a.",
"a.a.a.a.a.a.a.a.a.a.a.a.a.a.a.a.a.a.a.a.a.a.a.a.a.a.a.a.a.a.a.a.a.a.a.a.a.a.a.a.a.a.a.a.a.a.a.a.a.a.",
"a.a.a.a.a.a.a.a.a.a.a.a.a.a.a.a.a.a.a.a.a.a.a.a.a.a.a.a.a.a.a.a.a.a.a.a.a.a.a.a.a.a.a.a.a.a.a.a.a.a.",
"a.a.a.a.a.a.a.a.a.a.a.a.a.a.a.a.a.a.a.a.a.a.a.a.a.a.a.a.a.a.a.a.a.a.a.a.a.a.a.a.a.a.a.a.a.a.a.a.a.a.",
"a.a.a.a.a.a.a.a.a.a.a.a.a.a.a.a.a.a.a.a.a.a.a.a.a.a.a.a.a.a.a.a.a.a.a.a.a.a.a.a.a.a.a.a.a.a.a.a.a.a.",
"a.a.a.a.a.a.a.a.a.a.a.a.a.a.a.a.a.a.a.a.a.a.a.a.a.a.a.a.a.a.a.a.a.a.a.a.a.a.a.a.a.a.a.a.a.a.a.a.a.a.",
"a.a.a.a.a.a.a.a.a.a.a.a.a.a.a.a.a.a.a.a.a.a.a.a.a.a.a.a.a.a.a.a.a.a.a.a.a.a.a.a.a.a.a.a.a.a.a.a.a.a.",
"a.a.a.a.a.a.a.a.a.a.a.a.a.a.a.a.a.a.a.a.a.a.a.a.a.a.a.a.a.a.a.a.a.a.a.a.a.a.a.a.a.a.a.a.a.a.a.a.a.a.",
"a.a.a.a.a.a.a.a.a.a.a.a.a.a.a.a.a.a.a.a.a.a.a.a.a.a.a.a.a.a.a.a.a.a.a.a.a.a.a.a.a.a.a.a.a.a.a.a.a.a.",
"a.a.a.a.a.a.a.a.a.a.a.a.a.a.a.a.a.a.a.a.a.a.a.a.a.a.a.a.a.a.a.a.a.a.a.a.a.a.a.a.a.a.a.a.a.a.a.a.a.a.",
"a.a.a.a.a.a.a.a.a.a.a.a.a.a.a.a.a.a.a.a.a.a.a.a.a.a.a.a.a.a.a.a.a.a.a.a.a.a.a.a.a.a.a.a.a.a.a.a.a.a.",
"a.a.a.a.a.a.a.a.a.a.a.a.a.a.a.a.a.a.a.a.a.a.a.a.a.a.a.a.a.a.a.a.a.a.a.a.a.a.a.a.a.a.a.a.a.a.a.a.a.a."
};
