/* XPM */
static char *_ef506db6fea41d793ae804dc51b7e179kPBkX0Zyxj6CS74[] = {
/* columns rows colors chars-per-pixel */
"50 50 190 2 ",
"   c #085B1F",
".  c #285B15",
"X  c #226600",
"o  c #29721D",
"O  c #3C7619",
"+  c #0E5623",
"@  c #156F2D",
"#  c #0C7629",
"$  c #0C7D2C",
"%  c #187825",
"&  c #27793A",
"*  c #5D5E10",
"=  c #625E13",
"-  c #4F6D0F",
";  c #467D18",
":  c #57472B",
">  c #4C4230",
",  c #5C4C30",
"<  c #685639",
"1  c #476E21",
"2  c #7C653B",
"3  c gray36",
"4  c #75746E",
"5  c #866C3F",
"6  c #8F7343",
"7  c #8B734B",
"8  c #867A66",
"9  c #359E00",
"0  c #399A05",
"q  c #36A400",
"w  c #3BA603",
"e  c #0C832D",
"r  c #0B892F",
"t  c #198B2C",
"y  c #0C8C31",
"u  c #178A34",
"i  c #0C9533",
"p  c #0D9E36",
"a  c #278023",
"s  c #24853C",
"d  c #0DA037",
"f  c #22A73A",
"g  c #49990F",
"h  c #5A8B17",
"j  c #4B901E",
"k  c #7D8C0D",
"l  c #648913",
"z  c #799317",
"x  c #45A80A",
"c  c #5AB316",
"v  c #469822",
"b  c #62992F",
"n  c #5EB425",
"m  c #74A02D",
"M  c #65B624",
"N  c #6DBA22",
"B  c #72BD26",
"V  c #7BBF2B",
"C  c #7EC12D",
"Z  c #378245",
"A  c #33854B",
"S  c #32894B",
"D  c #448E54",
"F  c #4B805A",
"G  c #629143",
"H  c #798253",
"J  c #60935E",
"K  c #4CB440",
"L  c #518E62",
"P  c #5B956B",
"I  c #7F9969",
"U  c #669B75",
"Y  c #70A27E",
"T  c #898C09",
"R  c #88950C",
"E  c #9D9705",
"W  c #93960A",
"Q  c #8D911F",
"!  c #959419",
"~  c #A89C07",
"^  c #B09E1D",
"/  c #A2A209",
"(  c #B6A406",
")  c #BBA404",
"_  c #BEAA03",
"`  c #B4A20C",
"'  c #BEA909",
"]  c #BAA818",
"[  c #939A24",
"{  c #A79622",
"}  c #A69939",
"|  c #90B036",
" . c #B8A726",
".. c #B9A936",
"X. c #BBAC3D",
"o. c #C3AC03",
"O. c #C6AF0B",
"+. c #CCB403",
"@. c #C6B108",
"#. c #D4BD04",
"$. c #DABF02",
"%. c #C0B037",
"&. c #85C331",
"*. c #8DC636",
"=. c #91C839",
"-. c #9ACB3E",
";. c #DBC103",
":. c #E1C603",
">. c #E9CD03",
",. c #EDD103",
"<. c #F2D503",
"1. c #F7DA03",
"2. c #F9DB03",
"3. c #889C49",
"4. c #A49A55",
"5. c #9BB844",
"6. c #9FB951",
"7. c #ACA049",
"8. c #A1BF45",
"9. c #BEB14D",
"0. c #ADA357",
"q. c #BAAE57",
"w. c #BEB255",
"e. c #878865",
"r. c #978B6A",
"t. c #8D8B75",
"y. c #9F8E71",
"u. c #889673",
"i. c #AA9571",
"p. c #9AA76A",
"a. c #85A476",
"s. c #BDB363",
"d. c #AFAB75",
"f. c #C0B45D",
"g. c #C1B76C",
"h. c #9FCD41",
"j. c #A6C847",
"k. c #ABD248",
"l. c #B4D64E",
"z. c #908F8C",
"x. c #9F9F9B",
"c. c #A39E87",
"v. c #95AB92",
"b. c #A8AA89",
"n. c #B7AB8B",
"m. c #A6B28C",
"M. c #BBB485",
"N. c #A9A791",
"B. c #ADAA94",
"V. c #ADAC9C",
"C. c #B1AF98",
"Z. c #A5B398",
"A. c #B6B49D",
"S. c #BAB499",
"D. c #BEBB9D",
"F. c #9FB0A4",
"G. c #A7A7A7",
"H. c #AEADA3",
"J. c #AEAEAC",
"K. c #ACB3A8",
"L. c #BAB9AA",
"P. c #AFB1B0",
"I. c #BCBCB4",
"U. c #C4BF90",
"Y. c #C8BCA6",
"T. c #C0BBB2",
"R. c #BCC0BD",
"E. c #C5C197",
"W. c #C8C6AA",
"Q. c #D2CEAA",
"!. c #D3D0AE",
"~. c #C1C0BD",
"^. c #D6CDBD",
"/. c #DAD7B4",
"(. c #DFDCB8",
"). c #C2C2C2",
"_. c #C9C9C6",
"`. c #CDCDCD",
"'. c #D7D4CA",
"]. c gray82",
"[. c #DDDDDD",
"{. c #ECE8C2",
"}. c #F1EDC6",
"|. c #F8F4CC",
" X c #FFFBD2",
".X c #E4E4E4",
"XX c #ECECEC",
"oX c #F2EFEA",
"OX c #F7F6F5",
"+X c #FEFEFE",
/* pixels */
"d d d d d d d d d d d d d d d d d d d d d d d d d d d d d d d d d d d d d d d d d d d d d d d d d d ",
"d d d d d d d d d d d d d d d d d d d d d d d d d d d d d d d d d d d d d d d d d d d d d d d d d d ",
"d d d d d d d d d d d d d d d d d d d d d d d d d d d d d d d d d d d d d d d d d d d d d d d d d d ",
"d d d d d d d d d d d d d d d d d d d d d d d d d d d d d d d d d d d d d d d d d d d d d d d d d d ",
"d d d d d d d d d d d d d d d d d d d d d d d d d d d d d d d d d d d d d d d d d d d d d d d d d d ",
"d d d d d d d d d d d d d d d d d d d d d d d d d d d d d d d d d d d d d d d d d d d d d d d d d d ",
"d d d d d d d d d d d d d d d d d d d d d % h o p d d d d d d d d d d d d d d d d d d d d d d d d d ",
"d d d d d d d d d d d d d d d d d d d d d # } 4.a.a.J S i d d d d d d d d d d d d d d d d d d d d d ",
"d d d d d d d d d d d l.l.l.l.k.l.l.l.5.p.U.H.L.L.L.V.D.m.& p d p p p d d d d d d d d d d d d d d d ",
"d d d d d d d d d d d *.C l.l.6.6.l.8.d.H._.+X+X+X+X+X[.V.D.u d i A y p d d d d d d d d d d d d d d ",
"d d d d d d d d d d d l.B &.j.I.C.l.p.N.XX+XOX+X+X+XXXOX+XJ.N.y $ [.U d d d d d d d d d d d d d d d ",
"d d d d d d d d d d d l.k.x | I.b.l.b.c.Y.y.> Y.+XoX, < n.^.N.D i `.Y d d d d d d d d d d d d d d d ",
"d d d d d d d d d d d l.l.&.0 L.m.m b.2 6 6 : Y.3 z.8 < 5 6 r.a.$ `.L d d d d d d d d d d d d d d d ",
"d d d d d d d d d d d l.l.k.q Z.K.X S.7 c.U._.+X4 G.+XT.Y.i.r.m.S +XD d d d d d d d d d d d d d d d ",
"d d d d d d d d d d d l.l.h.q Y XX= Q.~.+X+XP.G.J.).P.XX+X+XD.I 4 +Xs d d d d d d d d d d d d d d d ",
"d d d d d d d d d d d l.l.k.-.p.+X7.E.C.XX+X+XOX+X+X+X+X+XT./.Z P.XXe d d d d d d d d d d d d d d d ",
"d d d d d d d d d d d l.l.l.l.3.+XN.^ (.b.I.].OX+X+X.X).H./.u.+ XXR.d d d d d d d d d d d d d d d d ",
"d d d d d d d d d d d f f f f t XXXX@.^ E.|.D.B.A.A.A.Q.|.u.. e.+Xv.i d d d d d d d d d d d d d d d ",
"d d d d d d d d d d d d d d d d v.+X'.} +.}  X}.Y.Q. X X4.] m.OXXXA   d d d d d d d d d d d d d d d ",
"d d d d d d d d d d d d d d d d S F.+X+XL.e.|. X X X X(.V..X+XXXL r - d d d d d d d d d d d d d d d ",
"d d d d d d d d d d d d d @ p p d y H W.OX`.{. X X X X!..X`.d.' ! _ ` l.l.l.l.l.l.l.l.d d d d d d d ",
"d d d d d d d d d d d d t . p p d d ( ;. .c. X X X X X Xt.) 2.2.2.2.` k.l.j.l.l.l.C h.d d d d d d d ",
"d d d d d d d d d d d d $ _ o e r O 2.2.;.D. X X X X X X/.+.2.2.2.2._ 5.l.m l.l.C N l.d d d d d d d ",
"d d d d d d d d d d d d r _ ,.) _ ,.2.2.o.Q. X XW.D.|. X{.` 2.2.2.2.;.| C 2 l.C x k.l.d d d d d d d ",
"d d d d d d d d d d d d p W 2.2.2.2.2.2.' {. X X X X X X X .2.2.2.2.2.[ g * j.q =.l.l.d d d d d d d ",
"d d d d d d d d d d d d d l 2.2.2.2.2.2.]  X X X X X X X XX.2.2.2.2.2.;._ ) x c l.l.l.d d d d d d d ",
"d d d d d d d d d d p p d t <.2.2.2.2.2... X X X X X X X Xw.2.2.2.2.2.2.1.o.9 &.l.l.l.d d d d d d d ",
"d d d d d d d d d d d p d i _ 1.2.2.2.2.9. X X X X X X X Xf.2.2.2.2.2.2.2._ q *.l.l.l.d d d d d d d ",
"d d d d d d d d d d # i d p h 2.2.2.2.2.q. X X X X X X X Xd.2.2.2.2.2.2.2./ q C l.l.l.d d d d d d d ",
"d d d d d d d d d d % ; d p e #.2.2.2.2.s. X X X X X X X XM.2.2.2.2.2.2.2.^ k.l.l.l.l.d d d d d d d ",
"d d d d d d d d d d e o.o d p R 2.2.2.2.s. X X X X X X X Xg.2.2.2.2.2.2.2.[ l.l.l.l.l.d d d d d d d ",
"d d d d d d d d d p i ~ $.o p h 2.2.2.2.s. X X X X X X X XU.2.2.2.2.2.2./ 1 b K K K n d d d d d d d ",
"d d d d d d d d d d p k 2.;.h T 2.2.2.2.w. X X X X X X X Xg.2.2.2.2.2.<.o.;.a d d d d d d d d d d d ",
"d d d d d d d d d d i j 2.2.2.<.2.2.2.2... X X X X X X X X0.2.2.2.2.2.2.2.k d d d d d d d d d d d d ",
"d d d d d d d d d d d e >.2.2.2.2.2.2.2.O.Q. X X X X X X(.] 2.2.2.2.2.2.,.& d d d d d d d d d d d d ",
"d d d d d d d d d d d p ~ 2.2.2.2.2.2.2.2.{ /. X X X X{.X.2.2.2.2.2.2.2.o.e d d d d d d d d d d d d ",
"d d d d d d d d d d l.l.[ 2.2.2.2.2.2.2.2.2.x.~.I.I.I.J.:.2.2.2.2.2.2.2./ p d d d d d d d d d d d d ",
"d d d d d d d d d p V l.| @.2.2.2.2.2.2.2.<.).+XC.4.+XXX+.2.2.2.2.2.2.2.l p d d d d d d d d d d d d ",
"d d d d d d d d d d V V l.z 2.2.2.2.2.2.2.,._.+X%.' OX+X` 2.2.2.2.2.2.:.r p d d d d d d d d d d d d ",
"d d d d d d d d d d l.c =.x ~ 2.2.2.2.2.2.>.].+X' ;..X+X] 2.2.2.2.2.2.l p p d d d d d d d d d d d d ",
"d d d d d d d d d d l.C w q g E 2.2.2.2.2.>.].[.#.2.L.+X .2.2.2.2.2.T r d d d d d d d d d d d d d d ",
"d d d d d d d d d d l.&.q q w 5.W <.2.2.2.,.`.~.<.2.M.+X..2.2.1.2.#.t d d d d d d d d d d d d d d d ",
"d d d d d d d d d d l.h.&.=.k.l.h.Q o.1.2.<.`.T.2.2.w.+Xw.1.1.1.T t d d d d d d d d d d d d d d d d ",
"d d d d d d d d d d l.l.l.l.l.l.l.l.5.| n v ].Z.n M G +XI M M v i d d d d d d d d d d d d d d d d d ",
"d d d d d d d d d d d d d d d d d d d d p & P S p d u P F u d d d d d d d d d d d d d d d d d d d d ",
"d d d d d d d d d d d d d d d d d d d d d d d d d d d d d d d d d d d d d d d d d d d d d d d d d d ",
"d d d d d d d d d d d d d d d d d d d d d d d d d d d d d d d d d d d d d d d d d d d d d d d d d d ",
"d d d d d d d d d d d d d d d d d d d d d d d d d d d d d d d d d d d d d d d d d d d d d d d d d d ",
"d d d d d d d d d d d d d d d d d d d d d d d d d d d d d d d d d d d d d d d d d d d d d d d d d d ",
"d d d d d d d d d d d d d d d d d d d d d d d d d d d d d d d d d d d d d d d d d d d d d d d d d d "
};
