/* XPM */
static char *_36b69d9e96d49ebf8ec79dcebad2e9eiPzzAkUAUezYEctA[] = {
/* columns rows colors chars-per-pixel */
"50 50 179 2 ",
"   c #231F1F",
".  c #262322",
"X  c #282323",
"o  c #272A24",
"O  c #2D2929",
"+  c #312D2C",
"@  c #243326",
"#  c #233B27",
"$  c #31312B",
"%  c #373333",
"&  c #393432",
"*  c #3D3936",
"=  c #41341F",
"-  c #463820",
";  c #413D3D",
":  c #1C4B27",
">  c #1F4D2A",
",  c #0E5E24",
"<  c #155626",
"1  c #1D542B",
"2  c #1C5C2C",
"3  c #214328",
"4  c #204929",
"5  c #2A5D37",
"6  c #0B6926",
"7  c #16682B",
"8  c #097328",
"9  c #0B7D2B",
"0  c #11762D",
"q  c #176F30",
"w  c #157A31",
"e  c #50582D",
"r  c #5B4E38",
"t  c #525930",
"y  c #464343",
"u  c #494545",
"i  c #4D4A41",
"p  c #545147",
"a  c #535352",
"s  c #5B5858",
"d  c #635F5F",
"f  c #786541",
"g  c #69675A",
"h  c #6D6A6A",
"j  c #726F6F",
"k  c #747171",
"l  c #7C7A7A",
"z  c #876D40",
"x  c #8F7343",
"c  c #947A4B",
"v  c #8B7B5F",
"b  c #8B7C61",
"n  c #807E70",
"m  c #37890C",
"M  c #3F8B18",
"N  c #36A400",
"B  c #3BA603",
"V  c #0C872E",
"C  c #0F8630",
"Z  c #0C8C31",
"A  c #128B34",
"S  c #1B8D3B",
"D  c #0D9433",
"F  c #0D9C36",
"G  c #109235",
"H  c #1E9C3F",
"J  c #218A3B",
"K  c #0DA037",
"L  c #45AA0A",
"P  c #47AB0B",
"I  c #50AE10",
"U  c #58B215",
"Y  c #60993D",
"T  c #50A323",
"R  c #6EBB22",
"E  c #72BD26",
"W  c #7BBF2B",
"Q  c #7EC02D",
"!  c #2F8C43",
"~  c #368C4E",
"^  c #2C954A",
"/  c #3F9057",
"(  c #5E8D47",
")  c #4CB440",
"_  c #77A641",
"`  c #4D9361",
"'  c #629160",
"]  c #709970",
"[  c #57A36C",
"{  c #71A36D",
"}  c #6CA67D",
"|  c #77A170",
" . c #75C245",
".. c #88B536",
"X. c #80C12D",
"o. c #84C331",
"O. c #8CC635",
"+. c #91C839",
"@. c #95825E",
"#. c #8C9F56",
"$. c #96AF48",
"%. c #8EA050",
"&. c #95AA54",
"*. c #99AF56",
"=. c #A1BC4B",
"-. c #88957F",
";. c #99967F",
":. c #96997E",
">. c #A38C65",
",. c #84A276",
"<. c #A5B368",
"1. c #9FCD41",
"2. c #A4CF44",
"3. c #A7D146",
"4. c #ACD349",
"5. c #B4D64E",
"6. c #7CA487",
"7. c #848282",
"8. c #8B8A8A",
"9. c #9E9C88",
"0. c #9C9B99",
"q. c #A09E85",
"w. c #99A686",
"e. c #86AB90",
"r. c #9FA492",
"t. c #A5A68A",
"y. c #A0B28B",
"u. c #A8A493",
"i. c #AEAD95",
"p. c #A5A59B",
"a. c #B0AF93",
"s. c #BAAB93",
"d. c #B1AE9B",
"f. c #B3B796",
"g. c #B7B69A",
"h. c #BCBA9C",
"j. c #9DB6A4",
"k. c #A5A4A4",
"l. c #ADACA8",
"z. c #B0AEAE",
"x. c #B8B6A5",
"c. c #B5B4B4",
"v. c #BEBDB5",
"b. c #BBBCBA",
"n. c #C1B39A",
"m. c #C6C79C",
"M. c #CCCAAC",
"N. c #D1CFAE",
"B. c #C7D2A9",
"V. c #CDC2B1",
"C. c #C2C1BB",
"Z. c #D7D5B2",
"A. c #D8D6B3",
"S. c #DCDAB6",
"D. c #E1DEBB",
"F. c #E5E2BE",
"G. c #BEC9C1",
"H. c #C3C2C1",
"J. c gray79",
"K. c #D9D7C7",
"L. c #D1D1CE",
"P. c #D5D5D5",
"I. c #D8D6D2",
"U. c #D8DDD7",
"Y. c #DDDDDD",
"T. c #DCE6D7",
"R. c #E9E7C2",
"E. c #ECE9C4",
"W. c #F2EFC8",
"Q. c #F6F3CC",
"!. c #FAF7CF",
"~. c #E8E2D8",
"^. c #FBF8D0",
"/. c #E4E4E4",
"(. c #ECE9E3",
"). c #ECECEC",
"_. c #F5F3EE",
"`. c #F6F6F6",
"'. c #FEFEFE",
/* pixels */
"K K K K K K K K K K K K K K K K K K K K K K K K K K K K K K K K K K K K K K K K K K K K K K K K K K ",
"K K K K K K K K K K K K K K K K K K K K K K K K K K K K K K K K K K K K K K K K K K K K K K K K K K ",
"K K K K K K K K K K K K K K K K K K K K K K K K K K K K K K K K K K K K K K K K K K K K K K K K K K ",
"K K K K K K K K K K K K F 7 V F K K K K K K K K K K K K K K K K K K K K K K K K K K K K K K K K K K ",
"K K K K K K K K K K K K D < @ , F 9 9 V F F K K K K K K K K K K K K K K K K K K K K K K K K K K K K ",
"K K K K K K K K K K K K F C X o 1 : 2 < 9 F K F K K K K K K K K K K K K K K K K K K K K K K K K K K ",
"K K K K K K K K K K K F 9 1 X X . X X X o : Z F K K K K K K K K K K K K K K K K K K K K K K K K K K ",
"K K K K K K K K F K K Z # + X X . . X X . X # 8 K K K K K K K K K K K K K K K K K K K K K K K K K K ",
"K K K K K K K V , q 0 e y h * X X X X X X X X 4 Z K K K K K K K K K K K K K K K K K K K K K K K K K ",
"K K K K K K K F w o X . u d O X X X X X u X X X < Z K K K K K K K K K K K K K K K K K K K K K K K K ",
"K K K K K K K K 9 w . X X X + X X X X 7.`.X X X 4 8 F K K K K K K K K K K K K K K K K K K K K K K K ",
"K K K K K K K K K Z > X X X z./.k.+ a /.k.X X X o Z K D S J C F K K K K K K K K K K K K K K K K K K ",
"K K K K K K K K K D 4 X X X u z.k X X O X X X X X G ' B.A.M.g.f.{ H K K K K K K K K K K K K K K K K ",
"K K K K K K K K F F 4 . X X X X X X X + X X X X $ B.Q.u.b.Y./.C.x.i.! K K K K K K K K K K K K K K K ",
"K K K K K K K K K 9 2 X X X X X n 8.H.P.7.X X X A.Q.x.'.'.'.'.'.'.b.g.S K K K K K K K K K K K K K K ",
"K K K K K K K K K D , . X X X X `.`.Y.c.k X X g ^.9._.K.s.V.'.'.`.~.u.{ K K K K K K K K K K K K K K ",
"K K K K K K K K K F 6 t X X X X ; % O X X X X s.^.@.x x = r '.'.b = z :.F K K K K K K K K K K K K K ",
"K K K K K K K K K K Z q # X X X X X X X X X   A.^.f c >.n.(.-.a K.b c ;.K K K K K K K K K K K K K K ",
"K K K K K K K K K K K F Z 1 X X X X X X X X X N.^.u._.'.'.'.Y.c.'.'.I.;.K K K K K K K K K K K K K K ",
"K K K K K K K K K K K K D 8 q 3 X X X X X X X 8.^.d.'.'.'.H.J.c.Y.'.v.] K K K K K K K K K K K K K K ",
"K K K K K K K K K K K K K K D 7 X X X X X X X + F.E.p.'.'.).'.).`.U.9.=.5.5.5.5.5.5.5.K K K K K K K ",
"K K K K K K K K K K K K K K F > X X X X X X X X i F.E.d.b._.'.P.C.w.%.5.5.5.5.5.5.X.1.K K K K K K K ",
"K K K K K K K K K K K K K K K 4 X X X X X X X X X ; a.Q.E.M.M.S.m.$.5.5.5.5.5.5.Q R 5.K K K K K K K ",
"K K K K K K K K K K K K K K K 4 X X X X X X X X . . 0.l.^.^.^.^.h.&.5.5.Q 5.5.Q L 4.5.F K K K K K K ",
"K K K K K K K K K K K K K K K 1 X X X X X X X X p /.'.x.!.^.^.^.K.'.y.=.L 3.2.B +.5.5.K K K K K K K ",
"K K K K K K K K K K K K K K K 2 X X X X X X X j '.'.v.Z.^.^.^.^.Z.-.'.K.m Q P U 5.5.5.K K K K K K K ",
"K K K K K K K K K K K K K K K w X X X X X X l '.Y.% R.^.^.^.^.^.S...Y U.U.M N o.5.5.5.K K K K K K K ",
"K K K K K K K K K K K K K K K A X X X X X + ).'.a + ^.^.^.^.^.^.F.$.Q ( `.,.N O.5.5.5.K K K K K K K ",
"K K K K K K K K K K K K K K K F X X X X X   k.'.L.g ^.^.^.^.^.^.!.&.$.T.P.T B E 5.5.5.K K K K K K K ",
"K K K K K K K K K K K K K K K K # X X X X X   8.`./.h.^.^.^.^.^.^.<.r./.*.5.5.5.5.5.5.K K K K K K K ",
"K K K K K K K K K K K K K K K K 7 X X X X X X X s ).).x.^.^.^.^.^.i.).%.5.5.5.5.5.5.5.K K K K K K K ",
"K K K K K K K K K K K K K K K F A X X X X X X     -.(.k.^.^.^.^.!.r.] ) ) ) ) ) ) ) ) K K K K K K K ",
"K K K K K K K K K K K K K K K K K 3 X X X X X X X h.h.R.^.^.^.^.^.n.F K K K K K K K K K K K K K K K ",
"K K K K K K K K K K K K K K K K K w X X X X X X X x.^.!.^.^.^.^.^.D.D K K K K K K K K K K K K K K K ",
"K K K K K K K K K K K K K K K K K K > X X X X X . i.^.^.^.^.^.^.^.^.Z K K K K K K K K K K K K K K K ",
"K K K K K K K K K K K K K K K K K F F @ X X X X X 9.^.^.^.^.^.^.^.^.Z K K K K K K K K K K K K K K K ",
"K K K K K K K K K K 5.5.5.5.5.5.5.5.5._ X X X X X p ^.^.^.^.^.^.^.A.F F K K K K K K K K K K K K K K ",
"K K K K K K K K K K W 5.5.5.5.5.5.5.5. .A # X X . . g.^.^.^.^.^.^.w.K K K K K K K K K K K K K K K K ",
"K K K K K K K K K K W W 5.O.5.5.5.5.5. .F G 3 X . X & t.W.^.^.^.y.H K K K K K K K K K K K K K K K K ",
"K K K K K K K K K K 5.U +.I 5.2.O.5.4. .K K F # X X . (.L.C.C.L.^ K K K K K K K K K K K K K K K K K ",
"K K K K K K K K K K 5.X.B N U R R R O. .K K K D o X % ).'.7.Y.'./ K K K K K K K K K K K K K K K K K ",
"K K K K K K K K K K 5.o.N N L 3.L B 4. .K K K K 2 X % '.P.  z.'.` K K K K K K K K K K K K K K K K K ",
"K K K K K K K K K K 5.1.o.+.2.5.4.5.5. .K K K K Z X % `.z.1 6.`.} F K K K K K K K K K K K K K K K K ",
"K K K K K K K K K K 5.5.5.5.5.5.5.5.5. .K K K K F # % `.e.G a '.6.K K K K K K K K K K K K K K K K K ",
"K K K K K K K K K K K K F K K K K K K K K K K K F 2 % `.6.K 5 '.e.K K K K K K K K K K K K K K K K K ",
"K K K K K K K K K K K K K K K K K K K K K K K K K q % `.[ K V _.j.F K K K K K K K K K K K K K K K K ",
"K K K K K K K K K K K K K K K K K K K K K K K K K Z u '.~ F F b.G.Z K K K K K K K K K K K K K K K K ",
"K K K K K K K K K K K K K K K K K K K K K K K K K F S ^ F K K S ^ D K K K K K K K K K K K K K K K K ",
"K K K K K K K K K K K K K K K K K K K K K K K K K K K K K K K K K K K K K K K K K K K K K K K K K K ",
"K K K K K K K K K K K K K K K K K K K K K K K K K K K K K K K K K K K K K K K K K K K K K K K K K K "
};
