/* XPM */
static char *result[] = {
/* columns rows colors chars-per-pixel */
"60 60 140 2 ",
"   c #040404",
".  c #080707",
"X  c #0A0807",
"o  c #040A0C",
"O  c #0C0B0A",
"+  c #100E0C",
"@  c #13100E",
"#  c #020E12",
"$  c #061114",
"%  c #0C1214",
"&  c #02161B",
"*  c #151310",
"=  c #1C1A16",
"-  c #111B1C",
";  c #1F1C18",
":  c #221E1A",
">  c #26211D",
",  c #011C23",
"<  c #00222B",
"1  c #002530",
"2  c #002A36",
"3  c #002D3A",
"4  c #2B2621",
"5  c #312D27",
"6  c #352F29",
"7  c #3B352E",
"8  c #25323A",
"9  c #3E3830",
"0  c #433C34",
"q  c #4B433A",
"w  c #51483E",
"e  c #003745",
"r  c #003F50",
"t  c #2D3C46",
"y  c #004153",
"u  c #004658",
"i  c #374A56",
"p  c #354E5A",
"a  c #384D58",
"s  c #3C515E",
"d  c #004E63",
"f  c #005066",
"g  c #00546B",
"h  c #005B74",
"j  c #00637E",
"k  c #564C42",
"l  c #594E45",
"z  c #5B5146",
"x  c #5F5449",
"c  c #61574B",
"v  c #655A4E",
"b  c #695E51",
"n  c #6E6154",
"m  c #726457",
"M  c #766A5B",
"N  c #486271",
"B  c #7D6F60",
"V  c #7F7263",
"C  c #837464",
"Z  c #857867",
"A  c #8A7B6B",
"S  c #8F806F",
"D  c #958573",
"F  c #988574",
"G  c #9A8977",
"H  c #9E8D7A",
"J  c #A18E7C",
"K  c #A3917D",
"L  c #006A86",
"P  c #006A88",
"I  c #007493",
"U  c #007A9B",
"Y  c #0086AA",
"T  c #058DB2",
"R  c #0090B7",
"E  c #0095BD",
"W  c #678CA2",
"Q  c #74A0B9",
"!  c #0099C3",
"~  c #00A2CE",
"^  c #00A6D3",
"/  c #00A9D7",
"(  c #00ACDB",
")  c #00B3E3",
"_  c #00B7E9",
"`  c #04B9EA",
"'  c #0ABAEA",
"]  c #13BCEB",
"[  c #1CBEED",
"{  c #21BFEE",
"}  c #5FB7D9",
"|  c #7EACC4",
" . c #27C0EF",
".. c #2EC2EF",
"X. c #34C3F0",
"o. c #3AC6F1",
"O. c #46C8F3",
"+. c #4BC9F3",
"@. c #54CBF5",
"#. c #58CCF5",
"$. c #66CFF7",
"%. c #69D1F7",
"&. c #6ED2F8",
"*. c #73D3F9",
"=. c #7BD4FA",
"-. c #A99682",
";. c #AC9984",
":. c #A29789",
">. c #B29F88",
",. c #B5A18B",
"<. c #B9A48E",
"1. c #BBA791",
"2. c #BEA892",
"3. c #C2AD95",
"4. c #C5AF98",
"5. c #C7B199",
"6. c #C9B49D",
"7. c #CBB7A1",
"8. c #CDBBA5",
"9. c #D1BFAA",
"0. c #D1C2AD",
"q. c #D6C9B7",
"w. c #DAD0BF",
"e. c #83B4CF",
"r. c #85B7D2",
"t. c #91C7E5",
"y. c #85D4F7",
"u. c #84D7FB",
"i. c #8DD9FD",
"p. c #94DBFD",
"a. c #9CDCFD",
"s. c #A2DEFF",
"d. c #A7E0FF",
"f. c #ACE1FF",
"g. c #B3E4FE",
"h. c #BCE6FE",
"j. c #BFE8FE",
"k. c #DBD2C1",
"l. c #C4E9FD",
"z. c #C9EAFD",
/* pixels */
"s.s.s.s.s.s.s.s.s.s.s.s.s.s.s.s.s.s.s.s.s.s.s.s.s.s.s.s.s.s.s.s.s.s.s.s.s.s.s.s.s.s.s.s.s.s.s.s.s.s.s.s.s.s.s.s.s.s.s.s.",
"s.s.s.s.s.s.s.s.s.s.s.s.s.s.s.s.s.s.s.s.s.s.s.s.s.s.s.s.s.s.s.s.s.s.s.s.s.s.s.s.s.s.s.s.s.s.s.s.s.s.s.s.s.s.s.s.s.s.s.s.",
"s.s.s.s.s.s.s.s.s.s.s.s.s.s.s.s.s.s.s.s.s.s.s.s.s.s.s.s.s.s.s.s.s.s.s.s.s.s.s.s.s.s.s.s.s.s.s.s.s.s.s.s.s.s.s.s.s.s.s.s.",
"s.s.s.s.s.s.s.s.s.s.s.s.s.s.s.s.s.s.s.s.s.s.s.s.s.s.s.s.s.s.s.s.s.s.s.s.s.s.s.s.s.s.s.s.s.s.s.s.s.s.s.s.s.s.s.s.s.s.s.s.",
"s.s.s.s.s.s.s.s.s.s.s.s.s.s.s.s.s.s.s.s.s.s.s.s.s.s.s.s.s.s.s.s.s.s.s.s.s.s.s.s.s.s.s.s.s.s.s.s.s.s.s.s.s.s.s.s.s.s.s.s.",
"s.s.s.s.s.s.s.s.s.s.s.s.s.s.s.s.s.s.s.s.s.s.s.s.s.s.s.s.s.s.s.s.s.s.s.s.s.s.s.s.s.s.s.s.s.s.s.s.s.s.s.s.s.s.s.s.s.s.s.s.",
"s.s.s.s.s.s.s.s.s.s.s.s.s.s.s.s.s.s.s.s.s.s.s.s.s.s.s.s.s.s.s.s.s.s.s.s.s.s.s.s.s.s.s.s.s.s.s.s.s.s.s.s.s.s.s.s.s.s.s.s.",
"s.s.s.s.s.s.s.s.s.s.s.s.s.s.s.s.s.s.s.s.s.s.s.s.s.s.s.s.s.s.s.s.s.s.s.s.s.s.s.s.s.s.s.s.s.s.s.s.s.s.s.s.s.s.s.s.s.s.s.s.",
"s.s.s.s.s.s.s.s.s.s.s.s.s.s.s.s.s.s.s.s.s.s.s.s.s.s.s.s.s.s.s.s.s.s.s.s.s.s.s.s.s.s.s.s.s.s.s.s.s.s.s.s.s.s.s.s.s.s.s.s.",
"s.s.s.s.s.s.s.s.s.s.s.s.s.s.s.s.s.s.s.s.s.s.s.s.s.s.s.s.s.s.s.s.s.s.s.s.s.s.s.s.s.s.s.s.s.s.s.s.s.s.s.s.s.s.s.s.s.s.s.s.",
"s.s.s.s.s.s.s.s.s.s.s.s.s.s.s.s.s.s.s.s.s.s.s.s.s.s.s.s.s.s.s.s.s.s.s.s.s.s.s.s.s.s.s.s.s.s.s.s.s.s.s.s.s.s.s.s.s.s.s.s.",
"s.s.s.s.s.s.s.s.s.s.s.s.s.s.s.s.s.s.s.s.s.s.s.s.s.s.s.s.s.s.s.s.s.s.s.s.s.s.s.s.s.s.s.s.s.s.s.s.s.s.s.s.s.s.s.s.s.s.s.s.",
"s.s.s.s.s.s.s.s.s.s.s.s.s.s.s.s.s.s.s.s.s.s.s.s.s.s.s.s.s.s.s.s.s.s.s.s.s.s.s.s.s.s.s.s.s.s.s.s.s.s.s.s.s.s.s.s.s.s.s.s.",
"s.s.s.s.s.s.s.s.s.s.s.s.s.s.s.s.s.s.s.s.s.s.s.s.s.s.s.s.s.s.s.s.s.s.s.s.s.s.s.s.s.s.s.s.s.s.s.s.s.s.s.s.s.s.s.s.s.s.s.s.",
"s.s.s.s.s.s.s.s.s.s.s.s.s.s.s.s.s.s.s.s.s.s.s.s.s.s.s.s.s.s.s.s.s.s.s.s.s.s.s.s.s.s.s.s.s.s.s.s.s.s.s.s.s.s.s.s.s.s.s.s.",
"s.s.s.s.s.s.s.s.s.s.s.s.s.s.s.s.s.s.s.s.s.s.s.s.s.s.s.s.s.s.s.s.s.s.s.s.s.s.s.s.s.s.s.s.s.s.s.s.s.s.s.s.s.s.s.s.s.s.s.s.",
"s.s.s.s.s.s.s.s.s.s.s.s.s.s.s.s.s.s.s.s.s.s.s.s.s.s.s.s.s.s.s.s.s.s.s.s.s.s.s.s.s.s.s.s.s.s.s.s.s.s.s.s.s.s.s.s.s.s.s.s.",
"s.s.s.s.s.s.s.s.s.s.s.s.s.s.s.s.s.s.s.s.s.s.s.s.s.s.s.s.s.s.s.s.s.s.s.s.s.s.s.s.s.s.s.s.s.s.s.s.s.s.s.s.s.s.s.s.s.s.s.s.",
"s.s.s.s.s.s.s.s.s.s.s.s.s.s.s.s.s.s.s.s.s.s.s.s.s.s.s.s.s.s.s.s.s.s.s.s.s.s.s.s.s.s.s.s.s.s.s.s.s.s.s.s.s.s.s.s.s.s.s.s.",
"s.s.s.s.s.s.s.s.s.s.s.s.s.s.s.s.s.s.s.s.s.s.s.s.s.s.s.s.s.s.s.s.s.s.s.s.s.s.s.s.s.s.s.s.s.s.s.s.s.s.s.s.s.s.s.s.s.s.s.s.",
"s.s.s.s.s.s.s.s.s.s.s.s.s.s.s.s.s.s.s.s.s.s.s.s.s.s.s.s.s.s.s.s.s.s.s.s.s.s.s.s.s.s.s.s.s.s.s.s.s.s.s.s.s.s.s.s.s.s.s.s.",
"s.s.s.s.s.s.s.s.s.s.s.s.s.s.s.s.s.s.s.s.s.s.s.s.s.s.s.s.s.s.s.s.s.s.s.s.s.s.s.s.s.s.s.s.s.s.s.s.s.s.s.s.s.s.s.s.s.s.s.s.",
"s.s.s.s.s.s.s.s.s.s.s.s.s.s.s.s.s.s.s.s.s.s.s.s.s.s.s.s.s.s.s.s.s.s.s.s.s.s.s.s.s.s.s.s.s.s.s.s.s.s.s.s.s.s.s.s.s.s.s.s.",
"s.s.s.s.s.s.s.s.s.s.s.s.s.s.s.s.s.s.s.s.s.s.s.s.s.s.s.s.s.s.s.s.s.s.s.s.s.s.s.s.s.s.s.s.s.s.s.s.s.s.s.s.s.s.s.s.s.s.s.s.",
"s.s.s.s.s.s.s.s.s.s.s.s.s.s.s.s.s.s.s.s.s.s.s.s.s.s.s.s.s.s.s.s.s.s.s.s.s.s.s.s.s.s.s.s.s.s.s.s.s.s.s.s.s.s.s.s.s.s.s.s.",
"s.s.s.s.s.s.s.s.s.s.s.s.s.s.s.s.s.s.s.s.s.s.s.s.s.s.s.s.s.s.s.s.s.s.s.s.s.s.s.s.s.s.s.s.s.s.s.s.s.s.s.s.s.s.s.s.s.s.s.s.",
"s.s.s.s.s.s.s.s.s.s.s.s.s.s.s.s.s.s.s.s.s.s.s.s.s.s.s.s.s.s.s.s.s.s.s.s.s.s.s.s.s.s.s.s.s.s.s.s.s.s.s.s.s.s.s.s.s.s.s.s.",
"s.s.s.s.s.s.s.s.s.s.s.s.s.s.s.s.s.s.s.s.s.s.s.s.s.s.s.s.s.s.s.s.s.s.s.s.s.s.s.s.s.s.s.s.s.s.s.s.s.s.s.s.s.s.s.s.s.s.s.s.",
"s.s.s.s.s.s.s.s.s.s.s.s.s.s.s.s.s.s.s.s.s.s.s.s.s.s.a.W i 8 s | s.s.s.s.s.s.s.s.s.s.s.s.s.s.s.s.s.s.s.s.s.s.s.s.s.s.s.s.",
"s.s.s.s.s.s.s.s.s.s.s.s.s.s.s.h.h.h.h.h.h.h.h.s.t.N % 4 v B v @ t e.s.s.s.s.s.s.s.s.s.s.s.s.s.s.s.s.s.s.s.s.s.s.s.s.s.s.",
"s.s.s.s.s.s.s.s.s.s.s.s.s.s.s.s.s.s.s.s.s.s.r.N % 5 A 4.9.w.7.,.0 . a Q y.y.u.p.a.s.s.s.s.s.s.s.s.s.s.s.s.s.s.s.s.s.s.s.",
"s.s.s.s.s.s.s.s.s.s.s.s.s.s.s.g.l.h.h.l.e.i X k :.q.w.9.0.q.6.5.5.K c : # u I ) _ ' { X.O.#.&.i.s.s.s.s.s.s.s.s.s.s.s.s.",
"s.s.s.s.s.s.s.s.s.s.s.s.h.j.g.f.a.=.} p X c 6.w.k.w.w.7.5.5.5.5.5.5.5.5.<.S 0 $ u ) _ _ _ _ _ _ ] ..*.a.s.s.s.s.s.s.s.s.",
"s.s.s.s.s.s.s.s.s.s.a.=.#.o.{ T f 2   q 1.6.w.w.w.0.6.5.5.5.5.5.5.5.5.5.5.5.4.;.7 2 T I R _ _ _ _ _ _ [ *.s.s.s.s.s.s.s.",
"s.s.s.s.s.s.s.y.@.[ _ _ _ _ j O > + m 0.q.6.0.8.5.5.5.5.5.5.5.5.5.5.5.5.5.5.5.5.3.q   5 > & h ~ _ _ _ _ ' *.s.s.s.s.s.s.",
"s.s.s.s.s.p.+.` _ _ _ _ _ E O m A q 5.8.5.5.5.5.5.5.5.5.,.>.S n V 1.5.5.5.5.5.5.5.-.  >.3.G 9 & j / _ _ _ $.s.s.f.s.s.s.",
"s.s.s.s.s.{ _ _ _ _ _ _ _ d 7 <.4.5.5.5.5.5.5.5.5.5.5.1.4 * ; 6 = 7 3.5.5.5.5.5.5.5.0 w 2.3.,.= @ 1 ) _ { s.s.s.z.s.s.s.",
"s.s.s.s.y.' _ _ _ _ _ _ ! % D 5.5.5.5.5.5.5.5.5.5.5.5.5.;.J ;.J S l 2.5.5.5.5.5.5.5.A   ; > > O + & / ' =.s.f.s.j.g.s.s.",
"s.s.s.s.#._ _ _ _ _ _ ( h 7 5.5.5.5.5.5.5.5.5.5.5.5.5.5.5.5.5.5.2.4.5.5.5.5.5.5.5.5.Z @   r Y U Y ~ _ X.s.s.z.s.f.h.s.s.",
"s.s.s.s.%.) _ _ _ E d , o * q -.5.5.5.5.5.5.5.5.5.5.5.5.5.5.5.5.5.5.5.5.5.5.5.5.5.5.J w b $ I ` _ _ _ +.s.s.z.s.f.l.s.s.",
"s.s.s.s.+._ _ E y - l K ,.K w X C 4.4.4.5.5.5.5.5.5.4.4.5.4.5.5.5.5.5.5.5.5.5.5.5.5.3.F F 0 3 _ _ _ _ o.s.s.l.f.f.j.s.s.",
"s.s.s.%._ _ h % @ ;.5.5.5.5.4.Z @ x M A S D D D D D A A A A A A D H K K G A C m b c z 7 : . P _ _ _ _ ] p.s.l.g.s.g.s.s.",
"s.s.s..._ ~ o > @ z l w z C J ,.4 < 3 < < < < < < < 3 3 3 3 2 < , & $ $ # & 1 e u d d g L ! _ _ _ _ _ [ a.s.z.s.s.s.s.s.",
"s.s.s.=. .` U f u d d d y 3 < - , E _ ) ) ) ) ) ) ) ) _ _ _ _ ) ( / ^ ^ ^ ( ) _ ` _ _ _ _ _ _ _ _ _ ] &.s.s.z.s.s.s.s.s.",
"s.s.s.s.a.u.=.@.X.[ ' _ _ _ ( ^ / ` ` ` _ ` ` ` ] ' ` ` _ _ _ _ _ _ _ _ _ _ _ _ _ _ _ _ ' ] [ o.%.u.p.s.s.h.h.s.s.s.s.s.",
"s.s.s.s.s.s.d.a.d.a.p.u.u.i.i.i.i.i.i.u.=.=.=.p.a.p.i.i.u.u.=.=.=.=.*.*.*.=.=.=.=.u.u.i.p.a.a.s.s.s.s.g.l.j.s.s.s.s.s.s.",
"s.s.s.s.s.s.s.s.s.s.s.s.s.s.d.s.s.s.s.s.s.s.s.s.s.s.s.s.s.s.s.s.s.s.s.s.s.s.s.s.d.s.s.s.s.s.s.s.s.s.s.h.s.s.s.s.s.s.s.s.",
"s.s.s.s.s.s.s.s.s.s.s.s.s.s.s.s.s.s.s.s.s.s.s.s.s.s.s.s.s.s.s.s.s.s.s.s.s.s.s.s.s.s.s.s.s.s.s.s.s.s.s.s.s.s.s.s.s.s.s.s.",
"s.s.s.s.s.s.s.s.s.s.s.s.s.s.s.s.s.s.s.s.s.s.s.s.s.s.s.s.s.s.s.s.s.s.s.s.s.s.s.s.s.s.s.s.s.s.s.s.s.s.s.s.s.s.s.s.s.s.s.s.",
"s.s.s.s.s.s.s.s.s.s.s.s.s.s.s.s.s.s.s.s.s.s.s.s.s.s.s.s.s.s.s.s.s.s.s.s.s.s.s.s.s.s.s.s.s.s.s.s.s.s.s.s.s.s.s.s.s.s.s.s.",
"s.s.s.s.s.s.s.s.s.s.s.s.s.s.s.s.s.s.s.s.s.s.s.s.s.s.s.s.s.s.s.s.s.s.s.s.s.s.s.s.s.s.s.s.s.s.s.s.s.s.s.s.s.s.s.s.s.s.s.s.",
"s.s.s.s.s.s.s.s.s.s.s.s.s.s.s.s.s.s.s.s.s.s.s.s.s.s.s.s.s.s.s.s.s.s.s.s.s.s.s.s.s.s.s.s.s.s.s.s.s.s.s.s.s.s.s.s.s.s.s.s.",
"s.s.s.s.s.s.s.s.s.s.s.s.s.s.s.s.s.s.s.s.s.s.s.s.s.s.s.s.s.s.s.s.s.s.s.s.s.s.s.s.s.s.s.s.s.s.s.s.s.s.s.s.s.s.s.s.s.s.s.s.",
"s.s.s.s.s.s.s.s.s.s.s.s.s.s.s.s.s.s.s.s.s.s.s.s.s.s.s.s.s.s.s.s.s.s.s.s.s.s.s.s.s.s.s.s.s.s.s.s.s.s.s.s.s.s.s.s.s.s.s.s.",
"s.s.s.s.s.s.s.s.s.s.s.s.s.s.s.s.s.s.s.s.s.s.s.s.s.s.s.s.s.s.s.s.s.s.s.s.s.s.s.s.s.s.s.s.s.s.s.s.s.s.s.s.s.s.s.s.s.s.s.s.",
"s.s.s.s.s.s.s.s.s.s.s.s.s.s.s.s.s.s.s.s.s.s.s.s.s.s.s.s.s.s.s.s.s.s.s.s.s.s.s.s.s.s.s.s.s.s.s.s.s.s.s.s.s.s.s.s.s.s.s.s.",
"s.s.s.s.s.s.s.s.s.s.s.s.s.s.s.s.s.s.s.s.s.s.s.s.s.s.s.s.s.s.s.s.s.s.s.s.s.s.s.s.s.s.s.s.s.s.s.s.s.s.s.s.s.s.s.s.s.s.s.s.",
"s.s.s.s.s.s.s.s.s.s.s.s.s.s.s.s.s.s.s.s.s.s.s.s.s.s.s.s.s.s.s.s.s.s.s.s.s.s.s.s.s.s.s.s.s.s.s.s.s.s.s.s.s.s.s.s.s.s.s.s.",
"s.s.s.s.s.s.s.s.s.s.s.s.s.s.s.s.s.s.s.s.s.s.s.s.s.s.s.s.s.s.s.s.s.s.s.s.s.s.s.s.s.s.s.s.s.s.s.s.s.s.s.s.s.s.s.s.s.s.s.s.",
"s.s.s.s.s.s.s.s.s.s.s.s.s.s.s.s.s.s.s.s.s.s.s.s.s.s.s.s.s.s.s.s.s.s.s.s.s.s.s.s.s.s.s.s.s.s.s.s.s.s.s.s.s.s.s.s.s.s.s.s."
};
