/* XPM */
static char *result[] = {
/* columns rows colors chars-per-pixel */
"60 60 98 2 ",
"   c #000100",
".  c #010B04",
"X  c #021407",
"o  c #011408",
"O  c #021C0A",
"+  c #03240C",
"@  c #042A0E",
"#  c #042F10",
"$  c #043412",
"%  c #053B15",
"&  c #064116",
"*  c #064C1A",
"=  c #07531D",
"-  c #08541D",
";  c #07591F",
":  c #085D20",
">  c #354439",
",  c #096523",
"<  c #096A25",
"1  c #116729",
"2  c #097126",
"3  c #0A7328",
"4  c #0A7B2A",
"5  c #39794B",
"6  c #5A5A5A",
"7  c #5B6E60",
"8  c #5C7A65",
"9  c #893A3A",
"0  c #963333",
"q  c #A33333",
"w  c #C10E0E",
"e  c #D80000",
"r  c #D20A04",
"t  c #CD1407",
"y  c #FF0000",
"u  c #FF0B0B",
"i  c #FF1313",
"p  c #FF1C1C",
"a  c #FF2424",
"s  c #FF2B2B",
"d  c #FF3232",
"f  c #FF3B3B",
"g  c #8A5C5C",
"h  c #995A5A",
"j  c #FF4343",
"k  c #FF4D4D",
"l  c #FF5353",
"z  c #FF5C5C",
"x  c #FF6363",
"c  c #FF6A6A",
"v  c #FF7474",
"b  c #FF7C7C",
"n  c #0B802C",
"m  c #0C892F",
"M  c #0B8D31",
"N  c #158435",
"B  c #138B35",
"V  c #0C9333",
"C  c #0D9C36",
"Z  c #119236",
"A  c #1B943F",
"S  c #16993B",
"D  c #0DA037",
"F  c #39804D",
"G  c #219041",
"H  c #3D8753",
"J  c #3F8955",
"K  c #1BA644",
"L  c #29AC50",
"P  c #408B57",
"I  c #5D8167",
"U  c #5D8769",
"Y  c #5D8B6B",
"T  c #5C936B",
"R  c #6B8C76",
"E  c #6B9177",
"W  c #4DA065",
"Q  c #42B562",
"!  c gray55",
"~  c #8D9690",
"^  c #8EA093",
"/  c #B6B6B6",
"(  c #FF8585",
")  c #FF8B8B",
"_  c #FF9494",
"`  c #FF9A9A",
"'  c #FFA2A2",
"]  c #FFAAAA",
"[  c #FFB5B5",
"{  c #FFBCBC",
"}  c #FFC5C5",
"|  c #FFCDCD",
" . c #FFD4D4",
".. c #FFDCDC",
"X. c #FFE3E3",
"o. c #FFEBEB",
"O. c #FFF4F4",
"+. c #FFFBFB",
/* pixels */
"D D D D D D D D D D D D D D D D D D D D D D D D D D D D D D D D D D D D D D D D D D D D D D D D D D D D D D D D D D D D ",
"D D D D D D D D D D D D D D D D D D D D D D D D D D D D D D D D D D D D D D D D D D D D D D D D D D D D D D D D D D D D ",
"D D D D D D D D D D D D D D D D D D D D D D D D D D D D D D D D D D D D D D D D D D D D D D D D D D D D D D D D D D D D ",
"D D D D D D D D D D D D D D D D D D D D D D D D D D D D D D D D D D D D D D D D D D D D D D D D D D D D D D D D D D D D ",
"D D D D D D D D D D D D D D D D D D D D D D D D D D D D D D D D D D D D D D D D D D D D D D D D D D D D D D D D D D D D ",
"D D D D D D D D D D D D D D D D D D D D D D D D D D D D D D D D D D D D D D D D D D D D D D D D D D D D D D D D D D D D ",
"D D D D D D D D D D D D D D D D D D D D D D D D D D D D D D D D D D D D D D D D D D D D D D D D D D D D D D D D D D D D ",
"D D D D D D D D D D D D D D D D D D D D D D D D D D D D D D D D D D D D D D D D D D D D D D D D D D D D D D D D D D D D ",
"D D D D D D D D D D D D D D D D D D D D D D D D D D D D D D D D D D D D D D D D D D D D D D D D D D D D D D D D D D D D ",
"D D D D D D D D D D D D D D D D D D D D D D D D D D D D D D D D D D D D D D D D D D D D D D D D D D D D D D D D D D D D ",
"D D D D D D D D D D D D D D D D D D D D D D D D D D D D D D D D D D D D D D D D D D D D D D D D D D D D D D D D D D D D ",
"D D D D D D D D D D D D D D D D D D D D D D D D D D D D D D D D D D D D D D D D D D D D D D D D D D D D D D D D D D D D ",
"D D D D D D D D D D D D D D D D D D D D D D D D D D D D D D D D D D D D D D D D D D D D D D D D D D D D D D D D D D D D ",
"D D D D D D D D D D D D D D D D D D D D D D D D D D D D D D D D D D D D D D D D D D D D D D D D D D D D D D D D D D D D ",
"D D D D D D D D D D D D D D D D D D D D D D D D D D D D D D D D D D D D D D D D D D D D D D D D D D D D D D D D D D D D ",
"D D D D D D D D D D D D D D D D D D D D D D D D D D D D D D D D D D D D D D D D D D D D D D D D D D D D D D D D D D D D ",
"D D D D D D D D D D D D D D D D D D D D D D D D D D D D D D D D D D D D D D D D D D D D D D D D D D D D D D D D D D D D ",
"D C C T G D D D D D D D D D D D D D D D D D D D D D D D D D D D D D D D D D D D D D D D D D D D D D D D D D D J W D D D ",
"D D Z / 9 w w w w w w w w w w w w w w w w w w w w w w w w w w w w w w w w w w w w w w w w w w w w w w w w w w g ! D D D ",
"D D Z / q y y y y y y y y y y y y y y y y y y y y y y y y y y y y y y y y y y y y y y y y y y y y y y y y y y h ! D D D ",
"D D Z / q y y y y y y y y u y y y i y y y i y y y y i i y y y y y y y s d i y y y y u y y y y u y y y y y y y h ! D D D ",
"D D N / q y y y u { |  ...X.{ y y ..a y y ..l y y y z ` y j v y y i } X. .O.x y y y } p y y y { p y y y y y y h ! D D D ",
"D D B / q y y y u +.z f d s i y y { f y y [ X.i y y z ' y k } y y { _ u y d ( y y y X.s y y y  .p y y y y y y h ! L D D ",
"D D Z / q y y y y +.p y y y y y y ` z y y ( +.( y y k ] y f  .y u +.p y y y y y y u X.s y y y  .a y y y y y y h ! D D D ",
"D D Z / q y y y y O.p y y y y y y ( b y y c } o.a y k ] y s X.y y o.k y y y y y y y X.d y y y  .p y y y y y y h ! K D D ",
"D D Z / q y y y y O.( b ( ( y y y c ` y y k { ) [ y k ] y s X.u y f X.+.o.| j y y y ....| |  .+.a y y y y y y h ! D D D ",
"D D Z / q y y y y o.[ _ ) v y y y z [ y y f  .u ..l z ' y s X.u y y u a a x X.i y y ..x j j j ..a y y y y y y h ! D D D ",
"D D N / q y y y y | d y y y y y y k } y y d X.y x | _ ) y s X.y y y y y y y X.d y y ..f y y y | s y y y y y y h ! D D D ",
"D D N / q y y y y ' l y y y y y y j | y y a X.u y } +.l y s X.y u y y y y i O.s y y ..f y y y | s y y y y y y h ! D D D ",
"D D N / q y y y u v ) y y y y y y f  .y y p X.u y s O.a y f ..y z  ._ c (  .( y y y  .f y y y } d y y y y y y h ! D D D ",
"D D N / q y y y y f _ y y y y y y u i y y y i y y y p y y i j y u j ( ' _ l y y y y ` a y y y ) p y y y y y y h ! D D D ",
"D D N / q y y y y y y y y y y y y y y y y y y y y y y y y y y y y y y y y y y y y y y y y y y y y y y y y y y h ! D D D ",
"D D N / 0 e e e e e e e e e e e e e e e e e e e e e e e e e e e e e e e e e e e r t e e e e e e e e e e e e e g ! D D D ",
"D D N / H S S D D S S S S S A S S S A S A S S S S D D D D S S A D D S D S S S D D D D D S S S A A S S S S S S R ! C D D ",
"D D N / P D D D D D D D D D D D D D D D D D D D D D D D D D D D D D D D D D D D D D D D D D D D D D D D D D D E ! D D D ",
"D D N / P D D D D D D D D D D D D D D D D D D D D D D D D D D D D D D D D D D D D D D D D D D D D D D D D D D E ! D D D ",
"D D Z / P D D D D D D D D D D D D D D D D D D D D D D D D D D D D D D D D D D D D D D D D D D D D D D D D D D R ^ D D D ",
"D D D / H D D D D D D D D D D D D D D D D D D D D D D D D D D D D D D D D D D D D D D D D D D D D D D D D D D Y ~ D D D ",
"D D V / F D D D D D D D D D D D D D D D D D D D D D D D D D D D D D D D D D D D D D D D D D D D D D D D D D D Y ! D D D ",
"D D 4 / 5 D D D D D D D D D D D D D D D D D D D D D D D D D D D D D D D D D D D D D D D D D D D D D D D D D D Y ! D D D ",
"D D n / 5 D D D D D D D D D D D D D D D D D D D D D D D D D D D D D D D D D D D D D D D D D D D D D D D D D D Y ! D D D ",
"D D n / 5 D D D D D D D D D D D D D D D D D D D D D D D D D D D D D D D D D D D D D D D D D D D D D D D D D D Y ! D D D ",
"D D n / 5 D D D D D D D D D D D D D D D D D D D D D D D D D D D D D D D D D D D D D D D D D D D D D D D D D D Y ! D D D ",
"D D n / 5 D D D D D D D D D D D D D D D D D D D D D D D D D D D D D D D D D D D D D D D D D D D D D D D D D D Y ! D D D ",
"D D n / 5 D D D D D D D D D D D D D D D D D D D D D D D D D D D D D D D D D D D D D D D D D D D D D D D D D D Y ! D D D ",
"D D n / 5 D D D D D D D D D D D D D D D D D D D D D D D D D D D D D D D D D D D D D D D D D D D D D D D D D D Y ! D D D ",
"D D n / 5 D D D D D D D D D D D D D D D D D D D D D D D D D D D D D D D D D D D D D D D D D D D D D D D D D D Y ! D D D ",
"D D n / 5 D D D D D D D D D D D D D D D D D D D D D D D D D D D D D D D D D D D D D D D D D D D D D D D D D D Y ! D D D ",
"D D n / 5 D D D D D D D D D D D D D D D D D D D D D D D D D D D D D D D D D D D D D D D D D D D D D D D D D D Y ! D D D ",
"D D n / 5 D D D D D D D D D D D D D D D D D D D D D D D D D D D D D D D D D D D D D D D D D D D D D D D D D D U ! D D D ",
"D D n / 5 D D D D D D D D D D D D D D D D D D D D D D D D D D D D D D D D D D D C D D D D D D C D D D D D D D I ! D D D ",
"D D n / 5 D D D D D D D D D D D D D D D D D D D D D D D D D D D D D D D D D D D C C C C D C V C D D V V C C C 8 ! D D D ",
"D D n / > + % C V O + 4 C , X @ D C + o : D , . O D D @ . * D 3     M C $   % D m     4 D %   @ D V .   , D = 6 ! C D D ",
"D D n / > + # 3 < + O ; 2 * # $ < , $ @ * , - $ @ : , & $ % ; - & $ = : * & $ * ; * $ & * - * $ * = = % % & : 7 ! D D D ",
"D D n / 5 D X   = C 4     M D #   % D 4     M D &   + D M     3 D *   + D C .   : D -   . D D +   * D 3     V I ! D D D ",
"D D V 1 n D < < M D m 3 n S D 4 3 V D V n 4 D D m n V D C M m D D V M V D D V V C D C C C D D C C C D D C C D 3 < D D D ",
"D D D D D D D D D D D D D D D D D D D D D D D D D D D D D D D D D D D D D D D D D D D D D D D D C D D D D D D D D D D D ",
"D D D D D D D D D D D D D D D D D D D D D D D D D D D D D D D D D D D D D D D D D D D D D D D D D D D D D D D D D D D D ",
"D D D D D D D D D D D D D D D D D D D D D D D D D D D D D D D D D D D D D D D D D D D D D D D D D D D D D D D D D D D D ",
"Q Q Q Q Q Q Q Q Q Q Q Q Q Q Q Q Q Q Q Q Q Q Q Q Q Q Q Q Q Q Q Q Q Q Q Q Q Q Q Q Q Q Q Q Q Q Q Q Q Q Q Q Q Q Q Q Q Q Q Q "
};
