/* XPM */
static char *_a00025cfb744572e515eb0b2e6f059ayKRYSVSs6qm9ZujV[] = {
/* columns rows colors chars-per-pixel */
"60 60 198 2 ",
"   c black",
".  c #18130C",
"X  c #111111",
"o  c #073612",
"O  c #163C10",
"+  c #262D05",
"@  c #32340E",
"#  c #2B2314",
"$  c #4B3C23",
"%  c #094819",
"&  c #164B18",
"*  c #0A571D",
"=  c #1F5516",
"-  c #3B590F",
";  c #2C5110",
":  c #2A5914",
">  c #1C661D",
",  c #24641A",
"<  c #2A6619",
"1  c #356A17",
"2  c #3B7418",
"3  c #22592D",
"4  c #0A6423",
"5  c #0B6D25",
"6  c #0E6929",
"7  c #156B26",
"8  c #097127",
"9  c #0B7529",
"0  c #0A7D2B",
"q  c #147324",
"w  c #13732E",
"e  c #107A2E",
"r  c #1E6C34",
"t  c #276736",
"y  c #29723C",
"u  c #465F0D",
"i  c #64590C",
"p  c #44630F",
"a  c #49620E",
"s  c #57690C",
"d  c #487113",
"f  c #4F7212",
"g  c #666A07",
"h  c #716F05",
"j  c #63740C",
"k  c #6A7A0C",
"l  c #797B08",
"z  c #6B5733",
"x  c #7A712F",
"c  c #7A643B",
"v  c #3F6D4C",
"b  c #337546",
"n  c #3A774B",
"m  c gray30",
"M  c #416A49",
"N  c #567751",
"B  c #557455",
"V  c #74704A",
"C  c #687B5B",
"Z  c #787455",
"A  c #5A7B63",
"S  c #647E6B",
"D  c #7A786A",
"F  c #7C7B74",
"G  c #857E04",
"H  c #907F07",
"J  c #85781A",
"K  c #877B25",
"L  c #867C37",
"P  c #8F7343",
"I  c #877C47",
"U  c #977E53",
"Y  c #0B842D",
"T  c #0B882F",
"R  c #0B8C30",
"E  c #0C9433",
"W  c #0C9C36",
"Q  c #0DA037",
"!  c #5B8816",
"~  c #679417",
"^  c #7DBC1F",
"/  c #65823D",
"(  c #68835C",
")  c #558262",
"_  c #738264",
"`  c #6D8573",
"'  c #7B847E",
"]  c #858507",
"[  c #8B8405",
"{  c #958603",
"}  c #9C8A03",
"|  c #968908",
" . c #9F9305",
".. c #8E801C",
"X. c #9D8C15",
"o. c #A18E0A",
"O. c #A59303",
"+. c #AB9602",
"@. c #AC9809",
"#. c #B39E03",
"$. c #A8961B",
"%. c #83BE1D",
"&. c #B5A103",
"*. c #BBA502",
"=. c #93872C",
"-. c #9B8D2B",
";. c #9F912A",
":. c #9C8E32",
">. c #928839",
",. c #A19231",
"<. c #C4AD02",
"1. c #CDB402",
"2. c #D4BB02",
"3. c #D6BC02",
"4. c #DDC203",
"5. c #E1C603",
"6. c #E5CA03",
"7. c #E9CE03",
"8. c #EED103",
"9. c #F2D503",
"0. c #F5D803",
"q. c #F9DB03",
"w. c #938A47",
"e. c #8E8859",
"r. c #9A8859",
"t. c #A49949",
"y. c #A59C5D",
"u. c #8A8665",
"i. c #948E66",
"p. c #98936B",
"a. c #838174",
"s. c #888677",
"d. c #938E72",
"f. c #8C9877",
"g. c #969679",
"h. c #99967C",
"j. c #A48E68",
"k. c #AC9773",
"l. c #A69A77",
"z. c #7D9283",
"x. c #898986",
"c. c #908E8C",
"v. c #819386",
"b. c #85968A",
"n. c #959386",
"m. c #9E9C85",
"M. c #8E9A92",
"N. c #959592",
"B. c #9B9A95",
"V. c #9B9B9A",
"C. c #A19E83",
"Z. c #A19F95",
"A. c #9BA483",
"S. c #A3A086",
"D. c #A5A38A",
"F. c #B8A789",
"G. c #A1A098",
"H. c #B1AE91",
"J. c #B4B295",
"K. c #B8B698",
"L. c #BEBC9D",
"P. c #A6A6A4",
"I. c #ACACA7",
"U. c #B1B0A9",
"Y. c #B3B4B3",
"T. c #BCBCBC",
"R. c #C2BB9E",
"E. c #CABDA6",
"W. c #C5C2A3",
"Q. c #CAC7A7",
"!. c #CDCAAA",
"~. c #D4D1AF",
"^. c #D4C8B5",
"/. c #D8CEBD",
"(. c #D9D5B3",
"). c #DDDAB6",
"_. c #DFDCB8",
"`. c #E1DDB9",
"'. c #E4E1BC",
"]. c #C3C3C3",
"[. c #CBCBCB",
"{. c #D3D3D3",
"}. c #D8D5D0",
"|. c #DDDCDC",
" X c #E4DED2",
".X c #EAE6C1",
"XX c #EEEBC4",
"oX c #F1EDC7",
"OX c #F6F3CB",
"+X c #FAF6CE",
"@X c #E7E1D7",
"#X c #FFFBD2",
"$X c #E4E4E3",
"%X c #EBEBEB",
"&X c #F3F0EB",
"*X c #F4F4F4",
"=X c #F8F6F3",
"-X c #FFFFFF",
/* pixels */
"Q Q Q Q Q Q Q Q Q Q Q Q Q Q Q Q Q Q Q Q Q Q Q Q Q Q Q Q Q Q Q Q Q Q Q Q Q Q Q Q Q Q Q Q Q Q Q Q Q Q Q Q Q Q Q Q Q Q Q Q ",
"Q Q Q Q Q Q Q Q Q Q Q Q Q Q Q Q Q Q Q Q Q Q Q Q R e R Q Q Q Q Q Q Q Q Q Q Q Q Q Q Q Q Q Q Q Q Q Q Q Q Q Q Q Q Q Q Q Q Q ",
"Q Q Q Q Q Q Q Q Q Q Q Q Q Q Q Q Q Q Q Q Q Q Q Q 9 h } j q W W Q W Q Q Q Q Q Q Q Q Q Q Q Q Q Q Q Q Q Q Q Q Q Q Q Q Q Q Q ",
"Q Q Q Q Q Q Q Q Q Q Q Q Q Q Q Q Q Q Q Q Q Q Q Q W = J I i.g.f.( M 9 E W Q Q Q Q Q Q Q Q Q Q Q Q Q Q Q Q Q Q Q Q Q Q Q Q ",
"Q Q Q Q Q Q Q Q Q Q Q Q Q Q Q Q Q Q Q Q Q Q W w _ (.oXW.m.n.S.L.oX`.A.t W Q Q Q Q Q Q Q Q Q Q Q Q Q Q Q Q Q Q Q Q Q Q Q ",
"Q Q Q Q Q Q Q Q Q Q Q Q Q Q Q Q Q Q Q Q Q E t ~.L.s.B.T.|.|.{.].B.s.D.'.N R Q Q Q Q Q W Q Q Q Q Q Q Q Q Q Q Q Q Q Q Q Q ",
"Q Q Q Q Q Q Q Q Q Q Q Q Q Q Q W r Y W Q W t `.a.Y.=X-X-X-X-X-X-X-X-XT.D `.C E Q Q T n 5 Q Q Q Q Q Q Q Q Q Q Q Q Q Q Q Q ",
"Q Q Q Q Q Q Q Q Q Q Q Q Q Q Q t %X` W Q r (.D *X-X-X-X-X-X-X-X-X-X-X-X-XF `.t W Q t -XY.Y Q Q Q Q Q Q Q Q Q Q Q Q Q Q Q ",
"Q Q Q Q Q Q Q Q Q Q Q Q Q Q Q z.-XM.W W f.m.|.-X-X&X X=X-X-X-X&X^. X-X-X=Xa.K.0 Q t -X%Xw Q Q Q Q Q Q Q Q Q Q Q Q Q Q Q ",
"Q Q Q Q Q Q Q Q Q Q Q Q Q Q Q z.-XA Q 8 ).D /.F.r.$ # r.-X-X-Xk.# # U k./.c..Xy Q 0 |.%Xw Q Q Q Q Q Q Q Q Q Q Q Q Q Q Q ",
"Q Q Q Q Q Q Q Q Q Q Q Q Q Q Q z.-X) Q 3 !.z P P P # . U %XY.[.F.. # P P P L H.Z Q 9 $X|.9 Q Q Q Q Q Q Q Q Q Q Q Q Q Q Q ",
"Q Q Q Q Q Q Q Q Q Q Q Q Q Q Q ` -Xb.W N K.c P P P P j.}.c.  X @XR.j.P P P P C.n.E b -XT.Y Q Q Q Q Q Q Q Q Q Q Q Q Q Q Q ",
"Q Q Q Q Q Q Q Q Q Q Q Q Q Q Q ) -XT.0 ( H.c U F./.}.-X-X*Xm T.-X-XT.|.E.k.P D.H.E A -XV.E W Q Q Q Q Q Q Q Q Q Q Q Q Q Q ",
"Q Q Q Q Q Q Q Q Q Q Q Q Q Q W y =X*X@ B ).V.-X-X-X].x.T.{.x.|.V.B.{.-X-X-XU.(.g.+ V.-Xz.W Q Q Q Q Q Q Q Q Q Q Q Q Q Q Q ",
"Q Q Q Q Q Q Q Q Q Q Q Q Q Q Q 6 $X-Xw.J #Xa.-X-X-X-X%X].[.[.T.$X].-X-X-X-Xs.#XC % $X-XA Q Q Q Q Q Q Q Q Q Q Q Q Q Q Q Q ",
"Q Q Q Q Q Q Q Q Q Q Q Q Q Q Q 0 ].-XG.#.Q.Q.N.-X-X-X-X-X-X-X-X-X-X-X-X-X[.g.XXr M -X-Xb Q Q Q Q Q Q Q Q Q Q Q Q Q Q Q Q ",
"Q Q Q Q Q Q Q Q Q Q Q Q Q Q W W M.-X{.+.x #XR.x.|.-X-X-X-X-X-X-X-X-X*XI.n.#X_ T ' -X$X9 Q Q Q Q Q Q Q Q Q Q Q Q Q Q Q Q ",
"Q Q Q Q Q Q Q Q Q Q Q Q Q Q Q Q ` -X-XL 4.I XXOXS.F N.Y.T.].].U.V.F a.).#Xg.8 o {.-X].Y Q Q Q Q Q Q Q Q Q Q Q Q Q Q Q Q ",
"Q Q Q Q Q Q Q Q Q Q Q Q Q Q Q Q b -X-XZ.3.6.K K.#X#X+X).!.!.~.).XX#X#XXXu.& - V -X-Xv.W 0 Q Q Q Q Q Q Q Q Q Q Q Q Q Q Q ",
"Q Q Q Q Q Q Q Q Q Q Q Q Q Q Q Q 9 %X-X-XD.} q.<.K _.#X#XH.S.n.+X#X#X.XK 6.| d.*X-X-Xv Q 4 Q Q Q Q Q Q Q Q Q Q Q Q Q Q Q ",
"Q Q Q Q Q Q Q Q Q Q Q Q Q Q Q Q E A -X-X-X[.w.#.{ XX#X#X#X#X#X#X#X#X`.i w.[.-X-X-Xv.R 8 % W Q Q Q Q Q Q Q Q Q Q Q Q Q Q ",
"Q Q Q Q Q Q Q Q Q Q Q Q W W Q Q Q R M $X-X-X-X{.F K.#X#X#X#X#X#X#X#XF *X-X-X-X&XS 0 R ] 2 W Q Q Q Q Q Q Q Q Q Q Q Q Q Q ",
"Q Q Q Q Q Q Q Q Q Q Q Q q W Q Q Q Q W r x.*X-X-X-XN.#X#X#X#X#X#X#X#XV.-X-X%XZ.J u 4 G q.2 W Q Q Q Q Q Q Q Q Q Q Q Q Q Q ",
"Q Q Q Q Q Q Q Q Q Q Q Q O R Q Q Q Q Q R O.o.Z T.{.S.#X#X#X#X#X#X#X#Xn.B.u.H 8.q.0.7.q.q.d W Q Q Q Q Q Q Q Q Q Q Q Q Q Q ",
"Q Q Q Q Q Q Q Q Q Q Q W h > W W Q Q Q * 8.q.q.3.Z #X#X#X#X#X#X#X#X#X#Xd.q.q.q.q.q.q.q.q.f Q Q W Y Q Q Q Q Q Q Q Q Q Q Q ",
"Q Q Q Q Q Q Q Q Q Q Q E { G Y W Q Q E l q.q.q.q.g.#X#X#X#X#X#X#X#X#X#XC.6.q.q.q.q.q.q.q.~ W Q Q % Q Q Q Q Q Q Q Q Q Q Q ",
"Q Q Q Q Q Q Q Q Q Q Q E [ q.+.a 2 d [ 0.q.q.q.6.H.#X#X#X#X#X#X#X#X#X#XU.*.q.q.q.q.q.q.q.H R Q Q % Q Q Q Q Q Q Q Q Q Q Q ",
"Q Q Q Q Q Q Q Q Q Q Q Q ~ q.q.q.q.q.q.q.q.q.q.<.!.#X#X#X(.a.u.L.#X#X#X.XO.q.q.q.q.q.q.q.<.Y Q Q o Q Q Q Q Q Q Q Q Q Q Q ",
"Q Q Q Q Q Q Q Q Q Q Q Q d q.q.q.q.q.q.q.q.q.q.&.'.#X#X#X#X#X#X#X#X#X#X#X| q.q.q.q.q.q.q.9., Q Q ; E Q Q Q Q Q Q Q Q Q Q ",
"Q Q Q Q Q Q Q Q Q Q Q Q > 8.q.q.q.q.q.q.q.q.q.O.+X#X#X#X#X#X#X#X#X#X#X#X-.q.q.q.q.q.q.q.q.O.1 j #.Y Q Q Q Q Q Q Q Q Q Q ",
"Q Q Q Q Q Q Q Q Q Q Q Q T &.q.q.q.q.q.q.q.q.q.X.#X#X#X#X#X#X#X#X#X#X#X#Xt.q.q.q.q.q.q.q.q.q.q.q.5.5 Q Q Q Q Q Q Q Q Q Q ",
"Q Q Q Q Q Q Q Q Q Q Q Q Q j q.q.q.q.q.q.q.q.q.;.#X#X#X#X#X#X#X#X#X#X#X#Xt.q.q.q.q.q.q.q.q.q.q.q.6.8 Q Q Q Q Q Q Q Q Q Q ",
"Q Q Q Q Q Q Q Q Q Q Q Q Q < 9.q.q.q.q.q.q.q.q.>.#X#X#X#X#X#X#X#X#X#X#X#Xp.q.q.q.q.q.q.q.q.q.q.q.6.8 Q Q Q Q Q Q Q Q Q Q ",
"Q Q Q Q Q Q Q Q Q Q Q Q Q T &.q.q.q.q.q.q.q.q.w.#X#X#X#X#X#X#X#X#X#X#X#Xh.q.q.q.q.q.q.q.q.q.q.q.4.8 Q Q Q Q Q Q Q Q Q Q ",
"Q Q Q Q Q Q Q Q 8 E Q Q Q Q a q.q.q.q.q.q.q.q.V #X#X#X#X#X#X#X#X#X#X#X#XD.8.q.q.q.q.q.q.q.q.q.q.1.Y Q Q Q Q Q Q Q Q Q Q ",
"Q Q Q Q Q Q Q Q 4 & Q Q Q Q q 4.q.q.q.q.q.q.q.u.#X#X#X#X#X#X#X#X#X#X#X#XJ.6.q.q.q.q.q.q.q.q.q.q.} E Q Q Q Q Q Q Q Q Q Q ",
"Q Q Q Q Q Q Q Q Y +., Q Q Q W ] q.q.q.q.q.q.q.d.#X#X#X#X#X#X#X#X#X#X#X#XL.3.q.q.q.q.q.q.q.q.q.q.g W Q Q Q Q Q Q Q Q Q Q ",
"Q Q Q Q Q Q Q Q W { 1.5 Q Q Q 1 q.q.q.q.q.q.q.g.#X#X#X#X#X#X#X#X#X#X#X#XW.3.q.q.q.q.q.q.q.q.q.q.1 Q Q Q Q Q Q Q Q Q Q Q ",
"Q Q Q Q Q Q Q Q Q s q. .q Q Q 7 4.0.q.q.q.q.q.g.#X#X#X#X#X#X#X#X#X#X#X#XW.1.q.q.q.q.q.q.q.q.q.#.Y Q Q Q Q Q Q Q Q Q Q Q ",
"Q Q Q Q Q Q Q Q Q 1 q.q.{ q Q 0 1.q.q.q.q.q.0.d.#X#X#X#X#X#X#X#X#X#X#X#XR.4.q.q.q.q.q.q.q.q.3.+ k g 8 Q Q Q Q Q Q Q Q Q ",
"Q Q Q Q Q Q Q Q Q 4 8.q.q.O.> ; 5.q.q.q.q.q.0.e.#X#X#X#X#X#X#X#X#X#X#X#XJ.6.q.q.q.q.q.q.q.q.{ 7.q.- W Q Q Q Q Q Q Q Q Q ",
"Q Q Q Q Q Q Q Q Q T <.q.q.q.q.8.q.q.q.q.q.q.0.e.#X#X#X#X#X#X#X#X#X#X#X#Xl.q.q.q.q.q.q.q.q.q.q.q.} Y Q Q Q Q Q Q Q Q Q Q ",
"Q Q Q Q Q Q Q Q Q Q ] q.q.q.q.q.q.q.q.q.q.q.q...#X#X#X#X#X#X#X#X#X#X#X#Xw.0.q.q.q.q.q.q.q.q.q.q.< W Q Q Q Q Q Q Q Q Q Q ",
"Q Q Q Q Q Q Q Q Q Q : q.q.q.q.q.q.q.q.q.q.q.q.<.W.#X#X#X#X#X#X#X#X#X#X'.@.q.q.q.q.q.q.q.q.q.q.1.0 Q Q Q Q Q Q Q Q Q Q Q ",
"Q Q Q Q Q Q Q Q Q Q 8 2.q.q.q.q.q.q.q.q.q.q.q.q.-.).#X#X#X#X#X#X#X#XXXL 8.q.q.q.q.q.q.q.q.q.q.G W Q Q Q Q Q Q Q Q Q Q Q ",
"Q Q Q Q Q Q Q Q Q Q W ] q.q.q.q.q.q.q.q.q.q.q.q.q.x S.Q.'.OX+XXX).D.x 4.q.q.q.q.q.q.q.q.q.q.q.s Q Q Q Q Q Q Q Q Q Q Q Q ",
"Q Q Q Q Q Q Q Q Q Q Q < 8.q.q.q.q.q.q.q.q.q.q.q.q.X.&X].U.P.I.I.].%X:.q.q.q.q.q.q.q.q.q.q.q.q.a Q Q Q Q Q Q Q Q Q Q Q Q ",
"Q Q Q Q Q Q Q Q Q Q Q T  .q.q.q.q.q.q.q.q.q.q.q.q.;.-X-X-XU.d.%X-X-Xt.q.q.q.q.q.q.q.q.q.q.q.7.q Q Q Q Q Q Q Q Q Q Q Q Q ",
"Q Q Q Q Q Q Q Q Q Q Q Q < 9.q.q.q.q.q.q.q.q.q.q.q.;.-X-X*X$.1.T.-X-Xy.q.q.q.q.q.q.q.q.q.q.q.| E Q Q Q Q Q Q Q Q Q Q Q Q ",
"Q Q Q Q Q Q Q Q Q Q Q Q E [ q.q.q.q.q.q.q.q.q.q.q.,.-X-X].1.9.D.-X-Xp.q.q.q.q.q.q.q.q.q.q.9.< Q Q Q Q Q Q Q Q Q Q Q Q Q ",
"Q Q Q Q Q Q Q Q Q Q Q Q Q q 3.0.q.q.q.q.q.q.q.q.q.:.-X-XI.7.q.i.-X-Xm.q.q.q.q.q.q.q.q.q.q.l E Q Q Q Q Q Q Q Q Q Q Q Q Q ",
"Q Q Q Q Q Q Q Q Q Q Q Q Q W ; 8.q.q.q.q.q.q.q.q.q.:.-X-Xp.q.q.:.-X-XV.0.q.q.q.q.q.q.q.q.3.q W Q Q Q Q Q Q Q Q Q Q Q Q Q ",
"Q Q Q Q Q Q Q Q Q Q Q Q Q Q E f 7.q.q.q.q.q.q.q.q.:.-X-Xw.q.q.X.-X-XI.5.q.q.q.q.q.q.q.8.1 Q Q Q Q Q Q Q Q Q Q Q Q Q Q Q ",
"Q Q Q Q Q Q Q Q Q Q Q Q Q Q Q T p 7.q.q.q.q.q.q.0.-.-X-X=.q.q.&.$X-XY.1.q.q.q.q.q.q.q.a E Q Q Q Q Q Q Q Q Q Q Q Q Q Q Q ",
"Q Q Q Q Q Q Q Q Q Q Q Q Q Q Q Q E , *.q.q.q.q.q.q.-.-X-XX.0.q.4.P.-XT.*.q.q.q.q.q.0.s R W Q Q Q Q Q Q Q Q Q Q Q Q Q Q Q ",
"Q Q Q Q Q Q Q Q Q Q Q Q Q Q Q Q Q W Y s 1.q.q.q.0.:.-X%X&.0.q.q.F -X{.#.q.q.q.q.2.- R Q Q Q Q Q Q Q Q Q Q Q Q Q Q Q Q Q ",
"Q Q Q Q Q Q Q Q Q Q Q Q Q Q Q Q Q Q Q Q 9 ! ^ ^ ^ / -X{.! ^ ^ ^ ( -X$Xj ^ %.%.~ 8 Q Q Q Q Q Q Q Q Q Q Q Q Q Q Q Q Q Q Q ",
"Q Q Q Q Q Q Q Q Q Q Q Q Q Q Q Q Q Q Q Q Q Q W W 9 ` *XT.T Q Q Q y -X*Xn T Q Q Q Q Q Q Q Q Q Q Q Q Q Q Q Q Q Q Q Q Q Q Q ",
"Q Q Q Q Q Q Q Q Q Q Q Q Q Q Q Q Q Q Q Q Q Q Q Q 9 r r r E Q Q Q Y t n b 0 Q Q Q Q Q Q Q Q Q Q Q Q Q Q Q Q Q Q Q Q Q Q Q ",
"Q Q Q Q Q Q Q Q Q Q Q Q Q Q Q Q Q Q Q Q Q Q Q Q Q Q Q Q Q Q Q Q Q Q Q Q Q Q Q Q Q Q Q Q Q Q Q Q Q Q Q Q Q Q Q Q Q Q Q Q "
};
