/* XPM */
static char *f27a0e121a3d42e1fead96cae8b7e973TKxIooEunI517vDZ[] = {
/* columns rows colors chars-per-pixel */
"50 50 59 1 ",
"  c #36A400",
". c #3AA502",
"X c #3BA603",
"o c #3BA604",
"O c #0DA037",
"+ c #22A73A",
"@ c #41A807",
"# c #42A908",
"$ c #45A909",
"% c #45AB0A",
"& c #47AB0A",
"* c #4AAB0C",
"= c #4DAD0E",
"- c #50AE10",
"; c #51AF11",
": c #55B113",
"> c #56B114",
", c #5AB216",
"< c #5EB418",
"1 c #64B61C",
"2 c #67B71E",
"3 c #6CBA21",
"4 c #6EBB22",
"5 c #6FBC23",
"6 c #70BB24",
"7 c #72BD26",
"8 c #75BD26",
"9 c #7ABF2A",
"0 c #7DC02C",
"q c #7EC02D",
"w c #4CB440",
"e c #75C245",
"r c #80C12E",
"t c #84C330",
"y c #87C432",
"u c #8BC534",
"i c #8CC636",
"p c #8EC737",
"a c #90C738",
"s c #91C839",
"d c #95C93A",
"f c #96CA3B",
"g c #98CA3D",
"h c #9CCC3F",
"j c #9ECD40",
"k c #A1CE42",
"l c #A4CF43",
"z c #A4CF44",
"x c #A4D044",
"c c #A5D044",
"v c #A5D045",
"b c #A8D147",
"n c #AAD248",
"m c #AED44A",
"M c #AFD44A",
"N c #AFD54B",
"B c #B0D54B",
"V c #B3D64E",
"C c #B4D64E",
/* pixels */
"OOOOOOOOOOOOOOOOOOOOOOOOOOOOOOOOOOOOOOOOOOOOOOOOOO",
"OOOOOOOOOOOOOOOOOOOOOOOOOOOOOOOOOOOOOOOOOOOOOOOOOO",
"OOOOOOOOOOOOOOOOOOOOOOOOOOOOOOOOOOOOOOOOOOOOOOOOOO",
"OOOOOOOOOOOOOOOOOOOOOOOOOOOOOOOOOOOOOOOOOOOOOOOOOO",
"OOOOOOOOOOOOOOOOOOOOOOOOOOOOOOOOOOOOOOOOOOOOOOOOOO",
"OOOOOOOOOOOOOOOOOOOOOOOOOOOOOOOOOOOOOOOOOOOOOOOOOO",
"OOOOOOOOOOOOOOOOOOOOOOOOOOOOOOOOOOOOOOOOOOOOOOOOOO",
"OOOOOOOOOOOOOOOOOOOOOOOOOOOOOOOOOOOOOOOOOOOOOOOOOO",
"OOOOOOOOOOOCCCCCCCCCCCCOOOOOOOOOOOOOOOOOOOOOOOOOOO",
"OOOOOOOOOOOp9VCCCCCCCCCOOOOOOOOOOOOOOOOOOOOOOOOOOO",
"OOOOOOOOOOOC3tCVkCCCCCCOOOOOOOOOOOOOOOOOOOOOOOOOOO",
"OOOOOOOOOOOCV*dd0CClCCVOOOOOOOOOOOOOOOOOOOOOOOOOOO",
"OOOOOOOOOOOCCy#:1p98xpVOOOOOOOOOOOOOOOOOOOOOOOOOOO",
"OOOOOOOOOOOCCb  .%l:@yVOOOOOOOOOOOOOOOOOOOOOOOOOOO",
"OOOOOOOOOOOCCh   1g&;bCOOOOOOOOOOOOOOOOOOOOOOOOOOO",
"OOOOOOOOOOOCCmgkxCCCCCCOOOOOOOOOOOOOOOOOOOOOOOOOOO",
"OOOOOOOOOOOCCCCCCCCCCCCOOOOOOOOOOOOOOOOOOOOOOOOOOO",
"OOOOOOOOOOO++++++++++++OOOOOOOOOOOOOOOOOOOOOOOOOOO",
"OOOOOOOOOOOOOOOOOOOOOOOOOOOOOOOOOOOOOOOOOOOOOOOOOO",
"OOOOOOOOOOOOOOOOOOOOOOOOOOOOOOOOOOOOOOOOOOOOOOOOOO",
"OOOOOOOOOOOOOOOOOOOOOOOOOOOOCCCCCCCCCCCCCCCOOOOOOO",
"OOOOOOOOOOOOOOOOOOOOOOOOOOOOCCCCCCCCCCCCCrkOOOOOOO",
"OOOOOOOOOOOOOOOOOOOOOOOOOOOOCCCCCCCCCCCC93COOOOOOO",
"OOOOOOOOOOOOOOOOOOOOOOOOOOOOCCCCCCCC9CCr*nCOOOOOOO",
"OOOOOOOOOOOOOOOOOOOOOOOOOOOOCCCCcCCC=bh aCCOOOOOOO",
"OOOOOOOOOOOOOOOOOOOOOOOOOOOOCklurrsxX6%<CCCOOOOOOO",
"OOOOOOOOOOOOOOOOOOOOOOOOOOOOCz%<5go# . yCCCOOOOOOO",
"OOOOOOOOOOOOOOOOOOOOOOOOOOOOCC* #xr    pCCCOOOOOOO",
"OOOOOOOOOOOOOOOOOOOOOOOOOOOOCCa66dk,@..7CCCOOOOOOO",
"OOOOOOOOOOOOOOOOOOOOOOOOOOOOCCCCCCCCCVVCCCCOOOOOOO",
"OOOOOOOOOOOOOOOOOOOOOOOOOOOOCCCCCCCCCCCCCCCOOOOOOO",
"OOOOOOOOOOOOOOOOOOOOOOOOOOOOwwwwwwwwwwwwwwwOOOOOOO",
"OOOOOOOOOOOOOOOOOOOOOOOOOOOOOOOOOOOOOOOOOOOOOOOOOO",
"OOOOOOOOOOOOOOOOOOOOOOOOOOOOOOOOOOOOOOOOOOOOOOOOOO",
"OOOOOOOOOOOOOOOOOOOOOOOOOOOOOOOOOOOOOOOOOOOOOOOOOO",
"OOOOOOOOOOOOOOOOOOOOOOOOOOOOOOOOOOOOOOOOOOOOOOOOOO",
"OOOOOOOOOOCCCCCCCCCeOOOOOOOOOOOOOOOOOOOOOOOOOOOOOO",
"OOOOOOOOOO9CCCCCCCCeOOOOOOOOOOOOOOOOOOOOOOOOOOOOOO",
"OOOOOOOOOO99VpCCVCCeOOOOOOOOOOOOOOOOOOOOOOOOOOOOOO",
"OOOOOOOOOOV:p;CxyCmeOOOOOOOOOOOOOOOOOOOOOOOOOOOOOO",
"OOOOOOOOOOC9o >326aeOOOOOOOOOOOOOOOOOOOOOOOOOOOOOO",
"OOOOOOOOOOCt. #n@.BeOOOOOOOOOOOOOOOOOOOOOOOOOOOOOO",
"OOOOOOOOOOCzpazCnVVeOOOOOOOOOOOOOOOOOOOOOOOOOOOOOO",
"OOOOOOOOOOCCVCCCCCCeOOOOOOOOOOOOOOOOOOOOOOOOOOOOOO",
"OOOOOOOOOOOOOOOOOOOOOOOOOOOOOOOOOOOOOOOOOOOOOOOOOO",
"OOOOOOOOOOOOOOOOOOOOOOOOOOOOOOOOOOOOOOOOOOOOOOOOOO",
"OOOOOOOOOOOOOOOOOOOOOOOOOOOOOOOOOOOOOOOOOOOOOOOOOO",
"OOOOOOOOOOOOOOOOOOOOOOOOOOOOOOOOOOOOOOOOOOOOOOOOOO",
"OOOOOOOOOOOOOOOOOOOOOOOOOOOOOOOOOOOOOOOOOOOOOOOOOO",
"OOOOOOOOOOOOOOOOOOOOOOOOOOOOOOOOOOOOOOOOOOOOOOOOOO"
};
