/* XPM */
static char *result[] = {
/* columns rows colors chars-per-pixel */
"60 60 31 1 ",
"  c #0DA037",
". c #17A338",
"X c #18A338",
"o c #18A438",
"O c #22A63A",
"+ c #22A73A",
"@ c #2CA93B",
"# c #2CAA3B",
"$ c #2DAA3C",
"% c #37AD3D",
"& c #37AE3D",
"* c #41B03E",
"= c #41B13E",
"- c #4BB43F",
"; c #4CB440",
": c #56B741",
"> c #56B841",
", c #60BB42",
"< c #61BB43",
"1 c #6BBE44",
"2 c #75C145",
"3 c #80C546",
"4 c #80C447",
"5 c #8AC848",
"6 c #94CB4A",
"7 c #95CC4A",
"8 c #9FCF4B",
"9 c #A9D24D",
"0 c #A9D34D",
"q c #AAD34D",
"w c #B4D64E",
/* pixels */
"                                                            ",
"                                                            ",
"                                                            ",
"                                                            ",
"                                                            ",
"                                                            ",
"                                                            ",
"                                                            ",
"                                            O=              ",
"                                            25;O            ",
"             *O                           =59w8=            ",
"           O=6,                           +1ww+             ",
"           %8wq5=                          .,;              ",
"            #ww1+                                           ",
"             ;,                                             ",
"                                                            ",
"                              X:O                           ",
"                          X& O99=                           ",
"                          >w84qo                            ",
"                           ;0w8                             ",
"                            >ww                             ",
"                            .:=                             ",
"                                                            ",
"                                                            ",
"                                                            ",
"                                                            ",
"                                                            ",
"                                                            ",
"                                                            ",
"                                                            ",
"                                                            ",
"                                                            ",
"                                             O:O            ",
"                                             %8w=&1%        ",
"             +:O                               89w9+        ",
"         %1O=w7=                               ww<          ",
"         %9w98                                 ;:+          ",
"           1ww                                              ",
"           .:;               @- O,X                         ",
"                          X+X3w>9qX                         ",
"                          5899ww9697$                       ",
"                             ;6$o  %+                       ",
"                                                            ",
"                                                            ",
"                                                            ",
"                                                            ",
"                                                            ",
"                                                            ",
"                    *O                  O-O                 ",
"                  O=6,                  ;8q$ $O             ",
"                  %8wq5=                 .057w;             ",
"                   #ww1+                  8w9:              ",
"                    ;,                    ww;               ",
"                                          ;:+               ",
"                                                            ",
"                                                            ",
"                                                            ",
"                                                            ",
"                                                            ",
"                                                            "
};
