/* XPM */
static char *_d8df0bf00044e32b977d966c7868cd6crDCHSVKVV8iaU5P[] = {
/* columns rows colors chars-per-pixel */
"50 50 185 2 ",
"   c #0E0805",
".  c #4F4026",
"X  c #5F4D2E",
"o  c #6A5734",
"O  c #7A633B",
"+  c #605D5D",
"@  c #6A6B57",
"#  c #7B6E58",
"$  c #696C6D",
"%  c #797472",
"&  c #880707",
"*  c #950000",
"=  c #991C1D",
"-  c #A90B0B",
";  c #B90404",
":  c #AB191A",
">  c #B21717",
",  c #B31F20",
"<  c #903739",
"1  c #AB2425",
"2  c #A72C2D",
"3  c #A73333",
"4  c #B63737",
"5  c #C40202",
"6  c #CC0000",
"7  c #DD0202",
"8  c #DB090B",
"9  c #CE1717",
"0  c #D31616",
"q  c #E30202",
"w  c #EA0000",
"e  c #F30000",
"r  c #FF0000",
"t  c #C23535",
"y  c #A93F41",
"u  c #814444",
"i  c #944548",
"p  c #85575B",
"a  c #9D595A",
"s  c #A64749",
"d  c #B8494A",
"f  c #A85252",
"g  c #B85050",
"h  c #8B7143",
"j  c #8F764A",
"k  c #927A4E",
"l  c #967D54",
"z  c #956B6F",
"x  c #947274",
"c  c #AA6C6C",
"v  c #C16666",
"b  c #C47373",
"n  c #C27B7B",
"m  c #36A400",
"M  c #39A502",
"N  c #0DA037",
"B  c #18A438",
"V  c #22A73A",
"C  c #45AA09",
"Z  c #49AC0C",
"A  c #51AF11",
"S  c #54B012",
"D  c #5FB51A",
"F  c #63B61C",
"G  c #6CBA22",
"H  c #74BD26",
"J  c #79BF29",
"K  c #7EC02C",
"L  c #17A442",
"P  c #1CA643",
"I  c #2CAC50",
"U  c #2CAE59",
"Y  c #3BB25D",
"T  c #4CB440",
"R  c #57B947",
"E  c #67BE43",
"W  c #46B769",
"Q  c #4AB869",
"!  c #58BE76",
"~  c #85C331",
"^  c #8CC635",
"/  c #94C93A",
"(  c #9ACB3E",
")  c #968A78",
"_  c #A79370",
"`  c #85C748",
"'  c #99CC45",
"]  c #9FCF4B",
"[  c #A2CE43",
"{  c #A5D044",
"}  c #A8D247",
"|  c #ADD349",
" . c #B4D64E",
".. c #5B7C80",
"X. c #FC7DA7",
"o. c #6F8B8F",
"O. c #7A8F92",
"+. c #76989C",
"@. c #789FA3",
"#. c #79A4A9",
"$. c #7CAAB1",
"%. c #68C482",
"&. c #67C58B",
"*. c #77CA8F",
"=. c #7DCD9A",
"-. c #888587",
";. c #87928F",
":. c #86999C",
">. c #93999A",
",. c #B49286",
"<. c #BB9494",
"1. c #B5A489",
"2. c #BCB19D",
"3. c #889EA2",
"4. c #919FA0",
"5. c #81A4AA",
"6. c #8DA5A8",
"7. c #83A9AE",
"8. c #97A7A9",
"9. c #86ADB1",
"0. c #82B1B6",
"q. c #88B4BA",
"w. c #94B5B9",
"e. c #A4A3A3",
"r. c #ABABAB",
"t. c #BDA4A4",
"y. c #ADB5B6",
"u. c #ADB9BA",
"i. c #B3B3B3",
"p. c #B5BABB",
"a. c #BDBDBD",
"s. c #C28888",
"d. c #C49898",
"f. c #FD8FB4",
"g. c #FD96B8",
"h. c #C2A8A8",
"j. c #CEB9A8",
"k. c #C7BBBB",
"l. c #93D5A7",
"z. c #94D5A8",
"x. c #A6DDB9",
"c. c #CEC2AF",
"v. c #D6CDBD",
"b. c #88BDC3",
"n. c #9DBDC1",
"m. c #FEBCD2",
"M. c #8BC0C7",
"N. c #8DC3CA",
"B. c #91C8CF",
"V. c #93CCD3",
"C. c #98D4DB",
"Z. c #99D5DD",
"A. c #A0C0C4",
"S. c #B8C0C1",
"D. c #B6E3C4",
"F. c #9DDCE3",
"G. c #A3E4EC",
"H. c #C2C2C2",
"J. c #C7CDCD",
"K. c #CDCDCD",
"L. c #CDD2D3",
"P. c #D6D6D6",
"I. c #DCD6D6",
"U. c #DCDCDC",
"Y. c #E2D0D0",
"T. c #EFD1D4",
"R. c #C2E7CD",
"E. c #CAEBD8",
"W. c #D2EDD9",
"Q. c #E8E2DA",
"!. c #FDDFE8",
"~. c #D9F1E4",
"^. c #E3E4E4",
"/. c #EFECE6",
"(. c #EBEBEB",
"). c #FCE7ED",
"_. c #E1F3E6",
"`. c #F4F2ED",
"'. c #FFEFF4",
"]. c #E5F6F1",
"[. c #EEF9F2",
"{. c #F3F3F3",
"}. c #F0F9F2",
"|. c #F9F6F9",
" X c #FFFFFF",
/* pixels */
"N N N N N N N N N N N N N N N N N N N N N N N N N N N N N N N N N N N N N N N N N N N N N N N N N N ",
"N N N N N N N N N N N N N N N N N N N N N N N N N N N N N N N N N N N N N N N N N N N N N N N N N N ",
"N N N N N N N N N N N N N N N N N N N N N N N N N N N N N N N N N N N N N N N N N N N N N N N N N N ",
"N N N N N N N N N N N N N N N N N N N N N N N N N N N N N N N N N N N N N N N N N N N N N N N N N N ",
"N N N N N N N N N N N N N N N N N N N N N N N N N N N N N N N N N N N N N N N N N N N N N N N N N N ",
"N N N N N N N N N N N N N N N N N N N N N N N N N N N N N N N N N N N N N N N N N N N N N N N N N N ",
"N N N N N N N N N N N N N N N N N N N N N N N N N N N N N N N N N N N N N N N N N N N N N N N N N N ",
"N N N N N N N N N  . . . . . . . . . . . .N N N N N N N N N N N N N N N N N N N N N N N N N N N N N ",
"N N N N N N N N N ^ K  . . . . . . . . . .N N N N N N N N N N N N N N N N N N N N N N N N N N N N N ",
"N N N N N N N N N  .G ~  . .[  . . . . . .N N N N N N N N N N N N N N N N N N N N N N N N N N N N N ",
"N N N N N N N N N  . .C / / J  . .}  . . .N N N N N N N N N N N N N N N N N N N N N N N N N N N N N ",
"N N N N N N N N N  . .~ C S F ^ J H [ ^  .N N N N N N N N N N N N N N N N N N N N N N N N N N N N N ",
"N N N N N N N N N  . .} M M M Z } S C ~  .N N N N N N N N N N N N N N N N N N N N N N N N N N N N N ",
"N N N N N N N N N  . .' m m M F ' Z A {  .N N N N N N N N N N N N N N N N N N N N N N N N N N N N N ",
"N N N N N N N N N  . .| ( ' [  . . . . . .N N N N N N N N N N N  . . . . . . . . . . .N N N N N N N ",
"N N N N N N N N N  . . .] ` E R E E ` ' } N N N N N N N N N N N  . . . . . . . . ./ ^ N N N N N N N ",
"N N N N N N N N N V V B N N N N N N N N N N N N N N N N N N N N  . . . . . .{  ./ G  .N N N N N N N ",
"N N N N N N N N N N N N N N N N N N N N N N N N N N N N N N N N  . .| |  .| D { S {  .N N N N N N N ",
"N N N N N N N N N N N N N N N N N N N N N N N N N N N N N N N N  .K K ~ F H m Z G  . .N N N N N N N ",
"N N N N N N N N N N N N N N N N N N N N N N N N U N N N N N N N | K M G ' M m m ^  . .N N N N N N N ",
"N N N N N N N N N N N N N N N N N N N N I ! *.D. X X XD.Q N N N  .| K K  .G D Z ~  . .N N N N N N N ",
"N N N N N N N N N N N N N N N N N N I R. X X X XU.H.U. X}.U N N  . . . . . . . . . . .N N N N N N N ",
"N N N N N N N N N N N N N N Q z.*.*._. X X(.s.: 6 q 5 2 Y. X*.N T R T T T T T T T T T N N N N N N N ",
"N N N N N N N N N N N N I {. X X|.^.|. X(.3 e r r r r r > (. X_.[. X~.%.N N N N N N N N N N N N N N ",
"N N N N N N N N N N N P _. X|.d.- 5 > b f r r e w w r r r x t.s.<.U. X X~.P N N N N N N N N N N N N ",
"N N N N N N N N N N Y _. X X,.q r r r q & f -.+.7.5.O.x < & e r r 0 x  X XE.P N N N N N N N N N N N ",
"N N N N N N N N N N l. X XI.5 r r r 9 % F.F.0.w.A.n.7.0.G.b.i w r r e c  X X=.N N N N N N N N N N N ",
"N N N N N N N N N N W. X Xn r r r > b.G.@.S.^. X X X XU.u.9.G.% q r r 7 h. X].L N N N N N N N N N N ",
"N N N N N N N N N P  X X Xd r r 8 7.V.6. X X X X X X X X X^.6.F.p r r r 3  X X&.N N N N N N N N N N ",
"N N N N N N N N N I  X X X2 r r p G.>. X X X X X X X X|. X X X3.C.: r r ; {. X=.N N N N N N N N N N ",
"N N N N N N N N N P  X X Xd r 7 0.+.|./.v.2.2.|. X XI.) 1.v.`.^.q.z r r ; (. Xz.N N N N N N N N N N ",
"N N N N N N N N N P  X X Xd.w , F.% _ j h .   2. X X,.  X h k _ ;.3.w r g  X X&.N N N N N N N N N N ",
"N N N N N N N N N N D. X X{.s 3 F.o h h h O # /.e.e.`.) k h h h @ b.* = U. X*.N N N N N N N N N N N ",
"N N N N N N N N N N %. X Xk.9 p F.o k 1.c.Q. X X+ $  X X'.j.1.l @ V.6 0 I. XP N N N N N N N N N N N ",
"N N N N N N N N N N %. X Xt r d G.;.).f.g.|. X|. X X|. Xm.X.f.|.8.b.8 r b  XQ N N N N N N N N N N N ",
"N N N N N N N N N N %. XU.6 r 1 F.w.'.m.T.'. Xi.a.a.K. X'.!.).).0.O.r r 1  XR.N N N N N N N N N N N ",
"N N N N N N N N N N %. X`.; r q 3.B.J. X X X X X X X X X X X|.4.G.f r r ,  X XQ N N N N N N N N N N ",
"N N N N N N N N N N Q  X X3 r r 2 F.5.P. X X X X X X X X X Xx.V.#.7 r r 4  X Xl.N N N N N N N N N N ",
"N N N N N N N N N N N }. Xh.q r r i Z.7.L. X X X X X X X|.u.$.B., r r r n  X Xx.N N N N N N N N N N ",
"N N N N N N N N N N N x. X|.f r r e y N.b.6.y.y.(.U.r.8.w.V.M.1 r r r ; U. X X*.N N N N N N N N N N ",
"N N N N N N N N N N N W  X X{.c 7 r r = o.G.+.[.$ >.p.C.F...& r r r q <. X X XY N N N N N N N N N N ",
"N N N N N N N N N N N N =. X X Xk.,.a P.a.N.+. Xr.(.y.F.9.I.e.u g v k. X X X[.N N N N N N N N N N N ",
"N N N N N N N N N N N N N &.]. X XP.P. X|.#.7. Xr.|.(.@.w. X Xa.{. X X X X[.x.N N N N N N N N N N N ",
"N N N N N N N N N N N N N N I ~. Xa. X XK.o.U. X8.p. Xu.O. X X(.k. X X}.%.N N N N N N N N N N N N N ",
"N N N N N N N N N N N N N N N Q  Xr. X|.-.x. XU.$.w.|.{.o.k.|. XJ. Xl.P N N N N N N N N N N N N N N ",
"N N N N N N N N N N N N N N N L {.r. X(.I. X X+.G.C.y. X XK.`. XH.D.N N N N N N N N N N N N N N N N ",
"N N N N N N N N N N N N N N N N _.e. X X|.|.6.F.G.G.q.p. X X X|.H.x.N N N N N N N N N N N N N N N N ",
"N N N N N N N N N N N N N N N N _.a.{. X^.4.C.G.G.G.G.V.8.|. XY.K.[.N N N N N N N N N N N N N N N N ",
"N N N N N N N N N N N N N N N N W.{.i.:.#.G.G.G.G.G.G.G.F.5.O.x. X XP N N N N N N N N N N N N N N N ",
"N N N N N N N N N N N N N N N N _. XK.N.G.G.G.G.G.G.G.G.G.G.$.|. X XQ N N N N N N N N N N N N N N N "
};
