/* XPM */
static char *result[] = {
/* columns rows colors chars-per-pixel */
"60 60 193 2 ",
"   c #040000",
".  c #0B0704",
"X  c #231A10",
"o  c #2F2415",
"O  c #342818",
"+  c #2F3839",
"@  c #353535",
"#  c #5A0707",
"$  c #690707",
"%  c #740101",
"&  c #6B1B1B",
"*  c #771B1B",
"=  c #791F20",
"-  c #49332D",
";  c #6A2C2D",
":  c #7B2424",
">  c #7D2A2B",
",  c #6B3537",
"<  c #763A3A",
"1  c #56452A",
"2  c #725D39",
"3  c #7E663D",
"4  c #2F3F40",
"5  c #5D3F41",
"6  c #6F3E40",
"7  c #4A484A",
"8  c #6B4143",
"9  c #794748",
"0  c #6F5354",
"q  c #776647",
"w  c #4C5E61",
"e  c #5C5E61",
"r  c #57676A",
"t  c #5B6B6C",
"y  c #5C7373",
"u  c #5A7679",
"i  c #646769",
"p  c #7A6565",
"a  c #646F71",
"s  c #637274",
"d  c #697578",
"f  c #6B797B",
"g  c #747373",
"h  c #747D7D",
"j  c #797A7A",
"k  c #860505",
"l  c #990808",
"z  c #881616",
"x  c #981616",
"c  c #A20303",
"v  c #AB0505",
"b  c #B40000",
"n  c #BC0000",
"m  c #B60909",
"M  c #862727",
"N  c #853939",
"B  c #C50000",
"V  c #CD0101",
"C  c #D40000",
"Z  c #DB0000",
"A  c #E30101",
"S  c #EC0000",
"D  c #F30000",
"F  c #FF0000",
"G  c #874040",
"H  c #875959",
"J  c #876E41",
"K  c #8B7143",
"L  c #8F7549",
"P  c #80735D",
"I  c #937E58",
"U  c #866868",
"Y  c #946F6F",
"T  c #867272",
"R  c #917575",
"E  c #0DA037",
"W  c #17A543",
"Q  c #1BA644",
"!  c #23A94E",
"~  c #2BAC50",
"^  c #2FAF5B",
"/  c #37B15C",
"(  c #3EB66C",
")  c #45B668",
"_  c #49B869",
"`  c #45B972",
"'  c #58BE77",
"]  c #9A825A",
"[  c #A5926E",
"{  c #A6926F",
"}  c #5D7E82",
"|  c #687E81",
" . c #737F80",
".. c #FC76A3",
"X. c #5C8085",
"o. c #648386",
"O. c #68888C",
"+. c #688D91",
"@. c #6C9499",
"#. c #709A9F",
"$. c #6F9BA1",
"%. c #739DA3",
"&. c #75A4A9",
"*. c #7AA8AE",
"=. c #7DADB2",
"-. c #7EB0B7",
";. c #5BC289",
":. c #65C384",
">. c #68C482",
",. c #77C98E",
"<. c #6AC896",
"1. c #6DCAA0",
"2. c #848484",
"3. c #858A8B",
"4. c #8C8C8C",
"5. c #988A8A",
"6. c #888F90",
"7. c #8C9192",
"8. c #949393",
"9. c #9B9593",
"0. c #9B9B9C",
"q. c #A69999",
"w. c #B8A78B",
"e. c #BDAE94",
"r. c #9B9FA0",
"t. c #9EA1A1",
"y. c #82AEB3",
"u. c #82B5BB",
"i. c #85B9BF",
"p. c #A3A4A4",
"a. c #ACA5A5",
"s. c #ACACAC",
"d. c #B3AFAF",
"f. c #B4B4B4",
"g. c #B7B8B8",
"h. c #BCBCBC",
"j. c #C2B59C",
"k. c #FD82AB",
"l. c #FD98BA",
"z. c #C9BBA6",
"x. c #85CF9B",
"c. c #86D09B",
"v. c #95D6A7",
"b. c #95D6A8",
"n. c #92D8BA",
"m. c #A3DCB4",
"M. c #CEC2AF",
"N. c #D4C8B8",
"B. c #86BCC2",
"V. c #89BFC5",
"C. c #FDADC7",
"Z. c #FEB3CC",
"A. c #FEBED3",
"S. c #8DC3C9",
"D. c #8DC5CC",
"F. c #92CBD3",
"G. c #97D2DA",
"H. c #99D5DD",
"J. c #9BD8DF",
"K. c #ADE1C9",
"L. c #B5E2C4",
"P. c #BFEADF",
"I. c #9DDBE2",
"U. c #A0DFE7",
"Y. c #A4E5ED",
"T. c #C3C3C3",
"R. c #CCCCCC",
"E. c #DDD5C8",
"W. c #D3D3D3",
"Q. c #DDDDDD",
"!. c #E1DACE",
"~. c #FEC9DA",
"^. c #E7DDD5",
"/. c #C2E7CD",
"(. c #C2E8CD",
"). c #C5E9D7",
"_. c #D2EDD9",
"`. c #FED6E4",
"'. c #CDEEE3",
"]. c #DBF2E7",
"[. c #DEF6F8",
"{. c #E3E3E3",
"}. c #EFECE4",
"|. c #ECECEC",
" X c #F8E9EB",
".X c #E1F3E6",
"XX c #F6F3EF",
"oX c #FFECF3",
"OX c #EFFAF5",
"+X c #F4F4F4",
"@X c #F0F9F2",
"#X c #F9F8F8",
"$X c #FFFFFF",
/* pixels */
"E E E E E E E E E E E E E E E E E E E E E E E E E E E E E E E E E E E E E E E E E E E E E E E E E E E E E E E E E E E E ",
"E E E E E E E E E E E E E E E E E E E E E E E E E E E E E E E E E E E E E E E E E E E E E E E E E E E E E E E E E E E E ",
"E E E E E E E E E E E E E E E E E E E E E E E E E E E E E E E E E E E E E E E E E E E E E E E E E E E E E E E E E E E E ",
"E E E E E E E E E E E E E E E E E E E E E E E E E E E E E E E E E E E E E E E E E E E E E E E E E E E E E E E E E E E E ",
"E E E E E E E E E E E E E E E E E E E E E E E E E E E E E E E E E E E E E E E E E E E E E E E E E E E E E E E E E E E E ",
"E E E E E E E E E E E E E E E E E E E E E E E E E E E E E E E E E E E E E E E E E E E E E E E E E E E E E E E E E E E E ",
"E E E E E E E E E E E E E E E E E E E E E E E E E E E E E E E E E E E E E E E E E E E E E E E E E E E E E E E E E E E E ",
"E E E E E E E E E E E E E E E E E E E E E E E E E E E E E E E E E E E E E E E E E E E E E E E E E E E E E E E E E E E E ",
"E E E E E E E E E E E E E E E E E E E E E E E E E E E E E ( ;./ ~ ~ E E E E E E E E E E E E E E E E E E E E E E E E E E ",
"E E E E E E E E E E E E E E E E E E E E E E E E E E Q ' (.$X$X$X$X$X].v.' E E E E E E E E E E E E E E E E E E E E E E E ",
"E E E E E E E E E E E E E E E E E E E E E E x.L..X@X$X$X$X$X$X$X$X$X$X$X$X_ E E E E E E E E E E E E E E E E E E E E E E ",
"E E E E E E E E E E E E E E E E E E E E ) /.$X$X$X$X$X$X$X+X|.{.{.|.$X$X$X.X~ E E E E E E E E E E E E E E E E E E E E E ",
"E E E E E E E E E E E E E E E Q E E E >.$X$X$X$X$X$X#XR.T N x l l x 9 9.$X$X$Xv.E E E E E E E E E E E E E E E E E E E E ",
"E E E E E E E E E E E E _ x.@X$XL.v./.$X$X$X$X$X$XW.< c D F F F F F F Z 9 {.$X$Xx.E E E E W W E E E E E E E E E E E E E ",
"E E E E E E E E E E ,.@X$X$X$X$X$X$X$X$X$X$X$X$Xd.x D F F F F F F F F F S H $X$X$X.XL.@X$X$X$Xm.~ E E E E E E E E E E E ",
"E E E E E E E E E ~ $X$X$X$X$X$XR.0.q.f.{.$X$XR.x F F F F F F F F F F F F b T.$X$X$X$X$X$X$X$X$X$Xm.~ E E E E E E E E E ",
"E E E E E E E E Q .X$X$X$X$XQ.9 m Z A B x U W.G D F F F F F F F F F F F F D p +XR.q.q.a.Q.$X$X$X$X$X#X:.E E E E E E E E ",
"E E E E E E E ~ _.$X$X$X$XR.= D F F F F F S $ n F S B l k : : : * k c C F F & > c Z Z C v 9 g.$X$X$X$X$X/ E E E E E E E ",
"E E E E E E ' @X$X$X$X$XQ.> D F F F F F F F k k 8 } u.G.Y.Y.Y.Y.Y.U.D.%.e - k F F F F F F F b R |.$X$X$X.X~ E E E E E E ",
"E E E E E E v.$X$X$X$X#XH A F F F F F F S x s S.Y.Y.Y.U.G.D.B.S.F.H.Y.Y.Y.I.&., b F F F F F F C H #X$X$X$XP.E E E E E E ",
"E E E E E E _.$X$X$X$XR.c F F F F F F V 5 D.Y.Y.Y.=.u  .3.t.s.s.t.7.d u S.Y.Y.I.%.* S F F F F F Z p $X$X$X$X) E E E E E ",
"E E E E E ~ $X$X$X$X$XY S F F F F F n u Y.Y.I.@.f g.#X$X$X$X$X$X$X$X$X+X0.d *.Y.Y.G., A F F F F F b f.$X$X$XL.E E E E E ",
"E E E E E >.$X$X$X$X$X: F F F F F B a Y.Y.V.t T.#X$X$X$X$X$X$X$X$X$X$X$X$X#Xg.y F.Y.F.; F F F F F F < #X$X$X#X;.E E E E ",
"E E E E E m.$X$X$X$X#Xk F F F F S 8 I.Y.i.h #X$X$X$X$X$X$X$X$X$X$X$X$X$X$X$X$X{. .u.Y.V.k F F F F F v T.$X$X$Xn.E E E E ",
"E E E E E m.$X$X$X$XQ.c F F F F x D.Y.i.3.$X$X$X$X$X$X$X$X$X$X$X$X$X$X$X$X$X$X$X$Xj V.Y.u A F F F F S R $X$X$XK.E E E E ",
"E E E E E m.$X$X$X$X{.c F F F D e Y.J.d #X$X$X$X$X$X$X$X$X$X$X$X$X$X$X$X$X$X$X$X$X$X .I.I.z F F F F F H $X$X$X'.E E E E ",
"E E E E E m.$X$X$X$X$Xk F F F b i.Y.} {.$X$X$X#X!.M.N.XX$X$X$X$X$X#XM.w.w.N.+X$X$X$XQ.} Y.e D F F F F H $X$X$X'.E E E E ",
"E E E E E c.$X$X$X$X$XN F F F * Y.I.3.+XE.e.{ L K - O 2 E.$X$X$X$Xe.1   1 K K { z.!.#X .U.y.n F F F Z 9.$X$X$X[.E E E E ",
"E E E E E v.$X$X$X$X$X8.C F D 0 Y.u.q I K K K K K .   O w.$X$X$X$Xw.o   X K K K K K ] P V.F.l F F F x {.$X$X$XP.E E E E ",
"E E E E E ~ $X$X$X$X$X#X> F S g Y.O.3 K K K K K K O . 1 E.$X$X$X$X}.q X 1 K K K K K K K +.I.O m F n 4.$X$X$Xc.E E E E E ",
"E E E E E E /.$X$X$X$X$XR.& B @.Y.t K K K K K K K K I N.$XW.1 4 f.$X}.e.I L K K K K K K } Y., b % T #X$X$Xm.E E E E E E ",
"E E E E E E ,.$X$X$X$X#XT c $ &.Y.t K K K K L { j.^.#X$X$Xf.    2.$X$X$X#X!.j.] K K K J o.Y.8 F S 0 $X$X$X>.E E E E E E ",
"E E E E E E >.$X$X$X$X5.C F V *.Y.y K [ e.N. XoX$X$X$X$X$X$X4.j XX$X$X$X$X`.~.A.^.z.{ q %.Y.< F F V a.$X$X>.E E E E E E ",
"E E E E E E >.$X$X$X{.l F F Z $.Y.#.R.#X~...k.l.#X$X$X$X$X$X$X$X$X$X$X$X$Xk.....k.`.$X0.D.Y.> F F F < #X$XL.E E E E E E ",
"E E E E E E >.$X$X$X8.D F F A d Y.D.8.$XZ.......Z.$X$X{.f.$X$X$X$XR.W.$X$Xl.l.C.l.oX$Xa Y.G.x F F F c Q.$X$X~ E E E E E ",
"E E E E E E >.$X$X$XU F F F F 6 Y.Y.s $X#X`.oXoX$X$X$X$XR.4.p.t.0.s.$X$X$X$X$X$X$X$X{.+.Y.=.n F F F V f.$X$Xv.E E E E E ",
"E E E E E E >.$X$X$XT F F F F l D.Y.=.g.$X$X$X$X$X$X$X$X$X$X#X#X$X$X$X$X$X$X$X$X$X$X6.F.Y.i S F F F C q.$X$X@XQ E E E E ",
"E E E E E E >.$X$X$X0.A F F F D i Y.Y.y {.$X$X$X$X$X$X$X$X$X$X$X$X$X$X$X$X$X$X$X$XT.O.Y.F.z F F F F C a.$X$X$Xc.E E E E ",
"E E E E E E / $X$X$XQ.l F F F F l y.Y.J.a +X$X$X$X$X$X$X$X$X$X$X$X$X$X$X$X$X$X$X|.r I.Y.i S F F F F n T.$X$X$X'.E E E E ",
"E E E E E E E @X$X$X$X< F F F F F > D.Y.V.a |.$X$X$X$X$X$X$X$X$X$X$X$X$X$X$X$XW.r H.Y.-.v F F F F F x |.$X$X$X$X~ E E E ",
"E E E E E E E b.$X$X$Xg.m F F F F S , G.Y.D.t R.$X$X$X$X$X$X$X$X$X$X$X$X$X#Xp.u U.Y.F.= F F F F F F 9 $X$X$X$X$XE E E E ",
"E E E E E E E :.$X$X$X$XY Z F F F F D ; S.Y.U.+.3.W.#X$X$X$X$X$X$X$X$X#Xf.a =.Y.Y.B.: D F F F F F b h.$X$X$X$X_.E E E E ",
"E E E E E E E ^ $X$X$X$X{.; A F F F F S * &.Y.Y.V.O.f 3.h p.#X+X0.g 4.d +.J.Y.Y.-.& D F F F F F D < $X$X$X$X$Xm.E E E E ",
"E E E E E E E E K.$X$X$X$X#X9 V F F F F F b 0 V.Y.Y.G.g #Xf.+ + T.#Xu Y.Y.Y.D.7 v F F F F F F D z R.$X$X$X$X$X' E E E E ",
"E E E E E E E E Q [.$X$X$X$X+X5.z C D F Z M 9 w G.Y.H.h $X$Xi 0.$X#Xo.Y.Y.&.+ @ # V F F F F A * g.$X$X$X$X$X$X~ E E E E ",
"E E E E E E E E E ` #X$X$X$X$X$X{.a.Y , 0 |.$X{.} Y.I.o.$X$Xs.R.$X|.o.Y.I.f #X$XT.@ 9 : z > T {.$X$X$X$X$X$X_.E E E E E ",
"E E E E E E E E E E 1.OX$X$X$X$X$X$X$Xa +X$X$X$X .Y.V.T $X$Xf.W.$X$Xt Y.S.p.$X$X$XR.8.$X$X$X$X$X$X$X$X$X$X$X).E E E E E ",
"E E E E E E E E E E E ! L.$X$X$X$X$Xs.R.$X$X$X#X| Y.| _.$X$X4.R.$X$X0.B.D.t.$X$X$X$X4.{.$X$X$X$X$X$X$X$X@X].' E E E E E ",
"E E E E E E E E E E E E E :.OX$X$X#Xj $X$X$X$X+XO.V.7.$X$X$Xt r.$X$X|.y I.6.$X$X$X$X{.4.$X$X$X$X$X$X(._ E E E E E E E E ",
"E E E E E E E E E E E E E E ( $X$XQ.p.$X$X$X$XR.@.a +X$X$XR.#.o.#X$X$Xg.#.s $X$X$X$X$Xj $X$X$X$X@Xm.E E E E E E E E E E ",
"E E E E E E E E E E E E E E E K.$Xs.R.$X$X$X#Xh w Q.$X$X$Xa I.u.0.$X$X$X0.4 W.$X$X$X$X7.+X$X$X,.Q E E E E E E E E E E E ",
"E E E E E E E E E E E E E E E <.$X8.{.$X$X#X2.j |.$X$X$Xf.&.Y.Y.o.|.$X$X$Xg.g s.$X$X$Xs.R.$X<.E E E E E E E E E E E E E ",
"E E E E E E E E E E E E E E E ( $X4.|.$X$X$X$X$X$X$X$XQ.u Y.Y.Y.I.h +X$X$X$X$X$X$X$X$XT.T.].E E E E E E E E E E E E E E ",
"E E E E E E E E E E E E E E E ! $X9.{.$X$X$X$X$X$X$XQ.a I.Y.Y.Y.Y.u.6.$X$X$X$X$X$X$X$Xg.R.(.E E E E E E E E E E E E E E ",
"E E E E E E E E E E E E E E E ! $Xh.g.$X$X$X$X$X$XQ.t I.Y.Y.Y.Y.Y.Y.=.2.$X$X$X$X$X$X$X2.+X_.E E E E E E E E E E E E E E ",
"E E E E E E E E E E E E E E E W $X+Xg $X$X$X$X$XT.w I.Y.Y.Y.Y.Y.Y.Y.Y.=.h #X$X$X$X$X+X4.$X$X_ E E E E E E E E E E E E E ",
"E E E E E E E E E E E E E E E E OX$Xh.4.+X$XQ.3.X.Y.Y.Y.Y.Y.Y.Y.Y.Y.Y.Y.B.s f.$X$X|.g W.$X$X,.E E E E E E E E E E E E E ",
"E E E E E E E E E E E E E E E E _.$X$X{.h r +.G.Y.Y.Y.Y.Y.Y.Y.Y.Y.Y.Y.Y.Y.Y.-.u r i {.$X$X$Xb.E E E E E E E E E E E E E ",
"E E E E E E E E E E E E E E E E /.$X$X$Xf.i.Y.Y.Y.Y.Y.Y.Y.Y.Y.Y.Y.Y.Y.Y.Y.Y.Y.Y.G.0.$X$X$X$Xm.E E E E E E E E E E E E E ",
"E E E E E E E E E E E E E E E ~ $X$X$X$Xt.F.Y.Y.Y.Y.Y.Y.Y.Y.Y.Y.Y.Y.Y.Y.Y.Y.Y.Y.Y.4.$X$X$X$X@XQ E E E E E E E E E E E E "
};
