/* XPM */
static char *_5fcdb8788d542a3996715ce29b6576fIesUnnbPDbXdADsu[] = {
/* columns rows colors chars-per-pixel */
"50 50 97 2 ",
"   c #000301",
".  c #010E05",
"X  c #021106",
"o  c #011408",
"O  c #021D0A",
"+  c #03230C",
"@  c #042A0F",
"#  c #042E10",
"$  c #053312",
"%  c #053C15",
"&  c #054117",
"*  c #064618",
"=  c #064B1A",
"-  c #07531D",
";  c #085A1F",
":  c #085D20",
">  c #086322",
",  c #096B25",
"<  c #0A7428",
"1  c #0A7C2B",
"2  c #5C4C1E",
"3  c #5F501C",
"4  c #634C1E",
"5  c #5E5621",
"6  c #684821",
"7  c #2D7642",
"8  c #3B7C4E",
"9  c #497555",
"0  c #547F60",
"q  c #5F7966",
"w  c #666867",
"e  c #68756B",
"r  c #7E7B6F",
"t  c #B60E0E",
"y  c #C10E0E",
"u  c #EF0000",
"i  c #FF0000",
"p  c #FF0B0B",
"a  c #FF1414",
"s  c #FF1D1D",
"d  c #FF2323",
"f  c #FF2B2B",
"g  c #FF3535",
"h  c #FF3A3A",
"j  c #886868",
"k  c #966666",
"l  c #FF4545",
"z  c #FF4E4E",
"x  c #FF5252",
"c  c #FF5959",
"v  c #FF6363",
"b  c #FF6B6B",
"n  c #FF7575",
"m  c #FF7D7D",
"M  c #0B842E",
"N  c #0C892F",
"B  c #0C8C31",
"V  c #0C9433",
"C  c #0D9D36",
"Z  c #15963A",
"A  c #0DA037",
"S  c #2F8B49",
"D  c #2B9148",
"F  c #46905C",
"G  c #548863",
"H  c #5E8469",
"J  c #5C8B6A",
"K  c #5A926A",
"L  c #58996B",
"P  c #688471",
"I  c #6D9278",
"U  c #71967B",
"Y  c #56A06B",
"T  c #42B562",
"R  c #978C8C",
"E  c #9D8C8C",
"W  c #8D918E",
"Q  c #8E9790",
"!  c #979494",
"~  c #9A9C9C",
"^  c #FF8282",
"/  c #FF8E8E",
"(  c #FF9494",
")  c #FF9999",
"_  c #FFA3A3",
"`  c #FFABAB",
"'  c #FFB4B4",
"]  c #FFBEBE",
"[  c #FFC3C3",
"{  c #FFC9C9",
"}  c #FFCCCC",
"|  c #FFD1D1",
" . c #FFD4D4",
".. c #FFDBDB",
"X. c #FFE3E3",
"o. c #FFE5E5",
"O. c #FFFCFC",
/* pixels */
"A A A A A A A A A A A A A A A A A A A A A A A A A A A A A A A A A A A A A A A A A A A A A A A A A A ",
"A A A A A A A A A A A A A A A A A A A A A A A A A A A A A A A A A A A A A A A A A A A A A A A A A A ",
"A A A A A A A A A A A A A A A A A A A A A A A A A A A A A A A A A A A A A A A A A A A A A A A A A A ",
"A A A A A A A A A A A A A A A A A A A A A A A A A A A A A A A A A A A A A A A A A A A A A A A A A A ",
"A A A A A A A A A A A A A A A A A A A A A A A A A A A A A A A A A A A A A A A A A A A A A A A A A A ",
"A A A A A A A A A A A A A A A A A A A A A A A A A A A A A A A A A A A A A A A A A A A A A A A A A A ",
"A A A A A A A A A A A A A A A A A A A A A A A A A A A A A A A A A A A A A A A A A A A A A A A A A A ",
"A A A A A A A A A A A A A A A A A A A A A A A A A A A A A A A A A A A A A A A A A A A A A A A A A A ",
"A A A A A A A A A A A A A A A A A A A A A A A A A A A A A A A A A A A A A A A A A A A A A A A A A A ",
"A A A A A A A A A A A A A A A A A A A A A A A A A A A A A A A A A A A A A A A A A A A A A A A A A A ",
"A A A A A A A A A A A A A A A A A A A A A A A A A A A A A A A A A A A A A A A A A A A A A A A A A A ",
"A A A A A A A A A A A A A A A A A A A A A A A A A A A A A A A A A A A A A A A A A A A A A A A A A A ",
"A A A A A A A A A A A A A A A A A A A A A A A A A A A A A A A A A A A A A A A A A A A A A A A A A A ",
"A A A A A A A A A A A A A A A A A A A A A A A A A A A A A A A A A A A A A A A A A A A A A A A A A A ",
"A A D S A A A A A A A A A A A A A A A A A A A A A A A A A A A A A A A A A A A A A A A A A A F Z A A ",
"A A K j y y y y y y y y y y y y y y y y y y y y y y y y y y y y y y y y y y y y y y y y y t R 7 A A ",
"A A K k i i i i i i i i i i i i i i i i i i i i i i i i i i i i i i i i i i i i i i i i i u E 7 A A ",
"A A K k i i i s z x v b s i b a i g x i i i ^ i a f i i f ( ' v i i i z i i i z p i i i i u E 7 A A ",
"A A J k i i i ^ ' ^ n b a i ` g i z ..p i i [ a z _ i f | x g _ l i i | i i i ' s i i i i u E 8 A A ",
"A A K k i i i m n i i i i i ( c i f O.( i i ] a h ' i ^ n i i i i i i | i i i ' d i i i i u E 7 A A ",
"A A K k i i i m n i i i i i m n i a { X.d i ] a f [ i v _ d a i i i i | i p i ' s i i i i u E 7 A A ",
"A A K k i i i n ..] { m i i v ( i i } l ' i [ a f { i i n [ { ..f i i X.o.o.o.O.f i i i i u E 7 A A ",
"A A K k i i i b _ g f a i i x _ i i  .i ' c { p f [ i i i i i v ) i i  .i i i ` d i i i i u E 7 A A ",
"A A H k i i i z ` i i i i i l ' i i { p f { } i f [ i i i i i z ` i i  .i i i ` f i i i i u E 7 A A ",
"A A H k i i i s  .i i i i i h ' i i ] a i / _ i g ] i _ ^ x v o.h i i  .i i i ` f i i i i u E 7 A A ",
"A A H k i i i i ^ i i i i i i p i i a i i i p i p h i d c ^ n f i i i b i i i c a i i i i u E 7 A A ",
"A A H k i i i i i i i i i i i i i i i i i i i i i i i i i i i i i i i i i i i i i i i i i u E 7 A A ",
"A A H r 5 4 3 6 6 6 6 6 6 6 6 6 6 6 6 4 3 3 3 3 4 6 4 3 4 2 4 6 3 3 3 3 3 4 6 6 6 6 6 6 6 2 ! 7 A A ",
"A A H U A A A A A A A A A A A A A A A A A A A A A A A A A A A A A A A A A A A A A A A A A A ~ 7 A A ",
"A A H U A A A A A A A A A A A A A A A A A A A A A A A A A A A A A A A A A A A A A A A A A A ~ 7 A A ",
"A A L U A A A A A A A A A A A A A A A A A A A A A A A A A A A A A A A A A A A A A A A A A A ~ S A A ",
"A A Y I A A A A A A A A A A A A A A A A A A A A A A A A A A A A A A A A A A A A A A A A A A W 7 A A ",
"A A G P A A A A A A A A A A A A A A A A A A A A A A A A A A A A A A A A A A A A A A A A A A ! 7 A A ",
"A A 0 P A A A A A A A A A A A A A A A A A A A A A A A A A A A A A A A A A A A A A A A A A A Q 7 A A ",
"A A 0 P A A A A A A A A A A A A A A A A A A A A A A A A A A A A A A A A A A A A A A A A A A Q 7 A A ",
"A A 0 P A A A A A A A A A A A A A A A A A A A A A A A A A A A A A A A A A A A A A A A A A A Q 7 A A ",
"A A 0 P A A A A A A A A A A A A A A A A A A A A A A A A A A A A A A A A A A A A A A A A A A Q 7 A A ",
"A A 0 P A A A A A A A A A A A A A A A A A A A A A A A A A A A A A A A A A A A A A A A A A A Q 7 A A ",
"A A 0 P A A A A A A A A A A A A A A A A A A A A A A A A A A A A A A A A A A A A A A A A A A Q 7 A A ",
"A A 0 P A A A A A A A A A A A A A A A A A A A A A A A A A A A A A A A A A A A A A A A A A A Q 7 A A ",
"A A 0 P A A A A A A A A A A A A A A A A A A A A A A A A A A A A A A A A A A A A A A A A A A Q 7 A A ",
"A C 0 P A A A A A A A A A A A A A A A A A A A A A A A A A A A A A A A A A A A A A A A A A V Q 7 A A ",
"A A 0 P A A A A A C A A A C A A C C A C A A A A A A A A A A A A A A C C A A C C A A A A A V Q 7 A A ",
"A A 0 e = , C < = 1 A > = V A = * C V & - A M % , A , & < A = % N A % % A V $ = A < @ ; A ; W 7 A A ",
"A A G w O % M & O > 1 $ O < , + O < : @ % < ; @ * , % @ = , $ # : , $ $ > - % $ : ; % % ; = W 7 A A ",
"A A 9 q A o   B M   O C 1   % C -   - A #   1 C + X C B . O A , . % C : X > C % X 1 Z + o N U 7 A A ",
"A A B M A M M A C N B A V V V A C B C A V V C A V V C A C V A C C C A C C A A C C C A A C C 1 B A A ",
"A C C C A A A A A A A A A A A A A A C A C C A A A A A A A A A A A A A A A A A A A A A A A A A C A A ",
"A A A A A A A A A A A A A A A A A A A A A A A A A A A A A A A A A A A A A A A A A A A A A A A A A A ",
"T T T T T T T T T T T T T T T T T T T T T T T T T T T T T T T T T T T T T T T T T T T T T T T T T T "
};
